<mxfile host="app.diagrams.net" modified="2022-12-02T14:11:08.428Z" agent="5.0 (Windows NT 10.0; Win64; x64) AppleWebKit/537.36 (KHTML, like Gecko) Chrome/108.0.0.0 Safari/537.36" etag="LZMzYQm8yrjT5u1sO2na" version="20.6.0" type="github" pages="2">
  <diagram id="z8NONTmW4sQmRKIPfPtj" name="第 1 页">
    <mxGraphModel dx="2563" dy="679" grid="0" gridSize="10" guides="1" tooltips="1" connect="1" arrows="1" fold="1" page="0" pageScale="1" pageWidth="827" pageHeight="1169" math="0" shadow="0">
      <root>
        <mxCell id="0" />
        <mxCell id="1" parent="0" />
        <mxCell id="FvgPysHojlI_TtdOGoiI-16" style="edgeStyle=orthogonalEdgeStyle;rounded=0;orthogonalLoop=1;jettySize=auto;html=1;fontSize=16;" parent="1" source="FvgPysHojlI_TtdOGoiI-2" target="FvgPysHojlI_TtdOGoiI-13" edge="1">
          <mxGeometry relative="1" as="geometry" />
        </mxCell>
        <mxCell id="FvgPysHojlI_TtdOGoiI-2" value="commandLine" style="swimlane;fontStyle=0;childLayout=stackLayout;horizontal=1;startSize=30;horizontalStack=0;resizeParent=1;resizeParentMax=0;resizeLast=0;collapsible=1;marginBottom=0;" parent="1" vertex="1">
          <mxGeometry x="40" y="100" width="140" height="60" as="geometry">
            <mxRectangle x="310" y="200" width="60" height="30" as="alternateBounds" />
          </mxGeometry>
        </mxCell>
        <mxCell id="FvgPysHojlI_TtdOGoiI-3" value="main(String[] args):void" style="text;strokeColor=none;fillColor=none;align=left;verticalAlign=middle;spacingLeft=4;spacingRight=4;overflow=hidden;points=[[0,0.5],[1,0.5]];portConstraint=eastwest;rotatable=0;" parent="FvgPysHojlI_TtdOGoiI-2" vertex="1">
          <mxGeometry y="30" width="140" height="30" as="geometry" />
        </mxCell>
        <mxCell id="FvgPysHojlI_TtdOGoiI-11" value="" style="group" parent="1" vertex="1" connectable="0">
          <mxGeometry x="-240" y="100" width="170" height="40" as="geometry" />
        </mxCell>
        <mxCell id="FvgPysHojlI_TtdOGoiI-6" value="add-title ......" style="text;html=1;strokeColor=none;fillColor=none;align=center;verticalAlign=middle;whiteSpace=wrap;rounded=0;fontSize=16;" parent="FvgPysHojlI_TtdOGoiI-11" vertex="1">
          <mxGeometry x="20" width="130" height="10" as="geometry" />
        </mxCell>
        <mxCell id="FvgPysHojlI_TtdOGoiI-10" value="add-bookmark ......" style="text;html=1;strokeColor=none;fillColor=none;align=center;verticalAlign=middle;whiteSpace=wrap;rounded=0;fontSize=16;" parent="FvgPysHojlI_TtdOGoiI-11" vertex="1">
          <mxGeometry y="30" width="170" height="10" as="geometry" />
        </mxCell>
        <mxCell id="FvgPysHojlI_TtdOGoiI-13" value="commandParse" style="swimlane;fontStyle=0;childLayout=stackLayout;horizontal=1;startSize=30;horizontalStack=0;resizeParent=1;resizeParentMax=0;resizeLast=0;collapsible=1;marginBottom=0;" parent="1" vertex="1">
          <mxGeometry x="5" y="240" width="210" height="60" as="geometry">
            <mxRectangle x="310" y="200" width="60" height="30" as="alternateBounds" />
          </mxGeometry>
        </mxCell>
        <mxCell id="FvgPysHojlI_TtdOGoiI-14" value="comParser(Label bookMark):void" style="text;strokeColor=none;fillColor=none;align=left;verticalAlign=middle;spacingLeft=4;spacingRight=4;overflow=hidden;points=[[0,0.5],[1,0.5]];portConstraint=eastwest;rotatable=0;" parent="FvgPysHojlI_TtdOGoiI-13" vertex="1">
          <mxGeometry y="30" width="210" height="30" as="geometry" />
        </mxCell>
        <mxCell id="FvgPysHojlI_TtdOGoiI-17" value="commandManager" style="swimlane;fontStyle=0;childLayout=stackLayout;horizontal=1;startSize=30;horizontalStack=0;resizeParent=1;resizeParentMax=0;resizeLast=0;collapsible=1;marginBottom=0;" parent="1" vertex="1">
          <mxGeometry x="-70" y="380" width="360" height="120" as="geometry">
            <mxRectangle x="310" y="200" width="60" height="30" as="alternateBounds" />
          </mxGeometry>
        </mxCell>
        <mxCell id="FvgPysHojlI_TtdOGoiI-18" value="executeCommand(Command command, Label bookMark):void" style="text;strokeColor=default;fillColor=none;align=left;verticalAlign=middle;spacingLeft=4;spacingRight=4;overflow=hidden;points=[[0,0.5],[1,0.5]];portConstraint=eastwest;rotatable=0;" parent="FvgPysHojlI_TtdOGoiI-17" vertex="1">
          <mxGeometry y="30" width="360" height="30" as="geometry" />
        </mxCell>
        <mxCell id="FvgPysHojlI_TtdOGoiI-19" value="undo():void" style="text;strokeColor=none;fillColor=none;align=left;verticalAlign=middle;spacingLeft=4;spacingRight=4;overflow=hidden;points=[[0,0.5],[1,0.5]];portConstraint=eastwest;rotatable=0;" parent="FvgPysHojlI_TtdOGoiI-17" vertex="1">
          <mxGeometry y="60" width="360" height="30" as="geometry" />
        </mxCell>
        <mxCell id="FvgPysHojlI_TtdOGoiI-20" value="redo():void" style="text;strokeColor=none;fillColor=none;align=left;verticalAlign=middle;spacingLeft=4;spacingRight=4;overflow=hidden;points=[[0,0.5],[1,0.5]];portConstraint=eastwest;rotatable=0;" parent="FvgPysHojlI_TtdOGoiI-17" vertex="1">
          <mxGeometry y="90" width="360" height="30" as="geometry" />
        </mxCell>
        <mxCell id="FvgPysHojlI_TtdOGoiI-21" value="list = [&quot;add-titlt&quot;, &quot;...&quot;]&lt;br&gt;list = [&quot;add-bookmark&quot;, &quot;...&quot;]" style="text;html=1;strokeColor=default;fillColor=none;align=center;verticalAlign=middle;whiteSpace=wrap;rounded=0;fontSize=16;strokeWidth=1;spacingTop=2;spacingBottom=0;" parent="1" vertex="1">
          <mxGeometry x="-300" y="690" width="230" height="50" as="geometry" />
        </mxCell>
        <mxCell id="FvgPysHojlI_TtdOGoiI-36" value="addCommand" style="swimlane;startSize=20;horizontal=1;containerType=tree;strokeColor=default;fontSize=16;" parent="1" vertex="1">
          <mxGeometry x="-10" y="610" width="730" height="540" as="geometry" />
        </mxCell>
        <mxCell id="FvgPysHojlI_TtdOGoiI-22" value="addCommand(String[] list)" style="swimlane;fontStyle=0;childLayout=stackLayout;horizontal=1;startSize=26;fillColor=none;horizontalStack=0;resizeParent=1;resizeParentMax=0;resizeLast=0;collapsible=1;marginBottom=0;strokeColor=default;fontSize=16;" parent="FvgPysHojlI_TtdOGoiI-36" vertex="1">
          <mxGeometry x="10" y="30" width="250" height="208" as="geometry" />
        </mxCell>
        <mxCell id="FvgPysHojlI_TtdOGoiI-44" value="" style="group;strokeColor=default;" parent="FvgPysHojlI_TtdOGoiI-22" vertex="1" connectable="0">
          <mxGeometry y="26" width="250" height="78" as="geometry" />
        </mxCell>
        <mxCell id="FvgPysHojlI_TtdOGoiI-23" value="cmdName = list[0]" style="text;strokeColor=none;fillColor=none;align=left;verticalAlign=top;spacingLeft=4;spacingRight=4;overflow=hidden;rotatable=0;points=[[0,0.5],[1,0.5]];portConstraint=eastwest;fontSize=16;" parent="FvgPysHojlI_TtdOGoiI-44" vertex="1">
          <mxGeometry width="260" height="26" as="geometry" />
        </mxCell>
        <mxCell id="FvgPysHojlI_TtdOGoiI-24" value="titleName = list[1]&#xa;" style="text;strokeColor=none;fillColor=none;align=left;verticalAlign=top;spacingLeft=4;spacingRight=4;overflow=hidden;rotatable=0;points=[[0,0.5],[1,0.5]];portConstraint=eastwest;fontSize=16;" parent="FvgPysHojlI_TtdOGoiI-44" vertex="1">
          <mxGeometry y="26" width="260" height="26" as="geometry" />
        </mxCell>
        <mxCell id="FvgPysHojlI_TtdOGoiI-25" value="parentTitleName = list[3]" style="text;strokeColor=none;fillColor=none;align=left;verticalAlign=top;spacingLeft=4;spacingRight=4;overflow=hidden;rotatable=0;points=[[0,0.5],[1,0.5]];portConstraint=eastwest;fontSize=16;" parent="FvgPysHojlI_TtdOGoiI-44" vertex="1">
          <mxGeometry y="52" width="260" height="26" as="geometry" />
        </mxCell>
        <mxCell id="FvgPysHojlI_TtdOGoiI-48" value="" style="group" parent="FvgPysHojlI_TtdOGoiI-22" vertex="1" connectable="0">
          <mxGeometry y="104" width="250" height="104" as="geometry" />
        </mxCell>
        <mxCell id="FvgPysHojlI_TtdOGoiI-42" value="cmdName = list[0]" style="text;strokeColor=none;fillColor=none;align=left;verticalAlign=top;spacingLeft=4;spacingRight=4;overflow=hidden;rotatable=0;points=[[0,0.5],[1,0.5]];portConstraint=eastwest;fontSize=16;" parent="FvgPysHojlI_TtdOGoiI-48" vertex="1">
          <mxGeometry width="260" height="26" as="geometry" />
        </mxCell>
        <mxCell id="FvgPysHojlI_TtdOGoiI-43" value="bookmarkName = list[1]" style="text;strokeColor=none;fillColor=none;align=left;verticalAlign=top;spacingLeft=4;spacingRight=4;overflow=hidden;rotatable=0;points=[[0,0.5],[1,0.5]];portConstraint=eastwest;fontSize=16;" parent="FvgPysHojlI_TtdOGoiI-48" vertex="1">
          <mxGeometry y="26" width="260" height="26" as="geometry" />
        </mxCell>
        <mxCell id="FvgPysHojlI_TtdOGoiI-46" value="url = list[3]" style="text;strokeColor=none;fillColor=none;align=left;verticalAlign=top;spacingLeft=4;spacingRight=4;overflow=hidden;rotatable=0;points=[[0,0.5],[1,0.5]];portConstraint=eastwest;fontSize=16;" parent="FvgPysHojlI_TtdOGoiI-48" vertex="1">
          <mxGeometry y="52" width="260" height="26" as="geometry" />
        </mxCell>
        <mxCell id="FvgPysHojlI_TtdOGoiI-47" value="itleName = list[5]" style="text;strokeColor=none;fillColor=none;align=left;verticalAlign=top;spacingLeft=4;spacingRight=4;overflow=hidden;rotatable=0;points=[[0,0.5],[1,0.5]];portConstraint=eastwest;fontSize=16;" parent="FvgPysHojlI_TtdOGoiI-48" vertex="1">
          <mxGeometry y="78" width="260" height="26" as="geometry" />
        </mxCell>
        <mxCell id="FvgPysHojlI_TtdOGoiI-59" value="execute(Label bookMark)" style="swimlane;fontStyle=0;childLayout=stackLayout;horizontal=1;startSize=26;fillColor=none;horizontalStack=0;resizeParent=1;resizeParentMax=0;resizeLast=0;collapsible=1;marginBottom=0;strokeColor=default;strokeWidth=1;fontSize=16;" parent="FvgPysHojlI_TtdOGoiI-36" vertex="1">
          <mxGeometry x="400" y="56" width="260" height="104" as="geometry" />
        </mxCell>
        <mxCell id="FvgPysHojlI_TtdOGoiI-60" value="Item 1" style="text;strokeColor=none;fillColor=none;align=left;verticalAlign=top;spacingLeft=4;spacingRight=4;overflow=hidden;rotatable=0;points=[[0,0.5],[1,0.5]];portConstraint=eastwest;strokeWidth=1;fontSize=16;" parent="FvgPysHojlI_TtdOGoiI-59" vertex="1">
          <mxGeometry y="26" width="260" height="26" as="geometry" />
        </mxCell>
        <mxCell id="FvgPysHojlI_TtdOGoiI-61" value="Item 2" style="text;strokeColor=none;fillColor=none;align=left;verticalAlign=top;spacingLeft=4;spacingRight=4;overflow=hidden;rotatable=0;points=[[0,0.5],[1,0.5]];portConstraint=eastwest;strokeWidth=1;fontSize=16;" parent="FvgPysHojlI_TtdOGoiI-59" vertex="1">
          <mxGeometry y="52" width="260" height="26" as="geometry" />
        </mxCell>
        <mxCell id="FvgPysHojlI_TtdOGoiI-62" value="Item 3" style="text;strokeColor=none;fillColor=none;align=left;verticalAlign=top;spacingLeft=4;spacingRight=4;overflow=hidden;rotatable=0;points=[[0,0.5],[1,0.5]];portConstraint=eastwest;strokeWidth=1;fontSize=16;" parent="FvgPysHojlI_TtdOGoiI-59" vertex="1">
          <mxGeometry y="78" width="260" height="26" as="geometry" />
        </mxCell>
        <mxCell id="FvgPysHojlI_TtdOGoiI-63" value="add-title command" style="swimlane;startSize=20;horizontal=1;containerType=tree;strokeColor=default;strokeWidth=1;fontSize=16;" parent="1" vertex="1">
          <mxGeometry x="-319" y="1332" width="971" height="413" as="geometry" />
        </mxCell>
        <mxCell id="FvgPysHojlI_TtdOGoiI-79" style="edgeStyle=orthogonalEdgeStyle;rounded=0;orthogonalLoop=1;jettySize=auto;html=1;entryX=0;entryY=0.5;entryDx=0;entryDy=0;fontFamily=Helvetica;fontSize=16;fontColor=#1A1A1A;" parent="FvgPysHojlI_TtdOGoiI-63" source="FvgPysHojlI_TtdOGoiI-68" target="FvgPysHojlI_TtdOGoiI-78" edge="1">
          <mxGeometry relative="1" as="geometry" />
        </mxCell>
        <mxCell id="FvgPysHojlI_TtdOGoiI-68" value="list = [&quot;add-title&quot;, &quot;函数式&quot;, &quot;at&quot;, &quot;参考资料&quot;]" style="text;html=1;strokeColor=none;fillColor=none;align=center;verticalAlign=middle;whiteSpace=wrap;rounded=0;strokeWidth=1;fontSize=16;" parent="FvgPysHojlI_TtdOGoiI-63" vertex="1">
          <mxGeometry x="58" y="55" width="330" height="30" as="geometry" />
        </mxCell>
        <mxCell id="FvgPysHojlI_TtdOGoiI-84" style="edgeStyle=orthogonalEdgeStyle;rounded=0;orthogonalLoop=1;jettySize=auto;html=1;fontFamily=Helvetica;fontSize=16;fontColor=#1A1A1A;entryX=0.5;entryY=0;entryDx=0;entryDy=0;" parent="FvgPysHojlI_TtdOGoiI-63" source="FvgPysHojlI_TtdOGoiI-74" target="FvgPysHojlI_TtdOGoiI-71" edge="1">
          <mxGeometry relative="1" as="geometry" />
        </mxCell>
        <mxCell id="FvgPysHojlI_TtdOGoiI-74" value="Item3" style="swimlane;fontStyle=0;childLayout=stackLayout;horizontal=1;startSize=30;horizontalStack=0;resizeParent=1;resizeParentMax=0;resizeLast=0;collapsible=1;marginBottom=0;strokeColor=#d6b656;strokeWidth=1;fontSize=16;fillColor=#fff2cc;" parent="FvgPysHojlI_TtdOGoiI-63" vertex="1">
          <mxGeometry x="513" y="165" width="140" height="60" as="geometry" />
        </mxCell>
        <mxCell id="FvgPysHojlI_TtdOGoiI-75" value="title = &quot;函数式&quot;" style="text;strokeColor=none;fillColor=none;align=left;verticalAlign=middle;spacingLeft=4;spacingRight=4;overflow=hidden;points=[[0,0.5],[1,0.5]];portConstraint=eastwest;rotatable=0;strokeWidth=1;fontSize=16;" parent="FvgPysHojlI_TtdOGoiI-74" vertex="1">
          <mxGeometry y="30" width="140" height="30" as="geometry" />
        </mxCell>
        <mxCell id="FvgPysHojlI_TtdOGoiI-80" style="edgeStyle=orthogonalEdgeStyle;rounded=0;orthogonalLoop=1;jettySize=auto;html=1;fontFamily=Helvetica;fontSize=16;fontColor=#1A1A1A;" parent="FvgPysHojlI_TtdOGoiI-63" source="FvgPysHojlI_TtdOGoiI-78" target="FvgPysHojlI_TtdOGoiI-74" edge="1">
          <mxGeometry relative="1" as="geometry" />
        </mxCell>
        <mxCell id="FvgPysHojlI_TtdOGoiI-78" value="&lt;pre style=&quot;&quot;&gt;&lt;font face=&quot;Helvetica&quot; style=&quot;font-size: 16px;&quot; color=&quot;#1a1a1a&quot;&gt;execute(Label bookMark)&lt;/font&gt;&lt;/pre&gt;" style="rounded=1;whiteSpace=wrap;html=1;strokeColor=default;strokeWidth=1;fontSize=16;" parent="FvgPysHojlI_TtdOGoiI-63" vertex="1">
          <mxGeometry x="468" y="45" width="230" height="50" as="geometry" />
        </mxCell>
        <mxCell id="FvgPysHojlI_TtdOGoiI-81" value="new" style="text;html=1;strokeColor=none;fillColor=none;align=center;verticalAlign=middle;whiteSpace=wrap;rounded=0;labelBackgroundColor=none;strokeWidth=1;fontFamily=Helvetica;fontSize=16;fontColor=#1A1A1A;" parent="FvgPysHojlI_TtdOGoiI-63" vertex="1">
          <mxGeometry x="528" y="115" width="60" height="30" as="geometry" />
        </mxCell>
        <mxCell id="FvgPysHojlI_TtdOGoiI-85" value="add" style="text;html=1;strokeColor=none;fillColor=none;align=center;verticalAlign=middle;whiteSpace=wrap;rounded=0;labelBackgroundColor=none;strokeWidth=1;fontFamily=Helvetica;fontSize=16;fontColor=#1A1A1A;" parent="FvgPysHojlI_TtdOGoiI-63" vertex="1">
          <mxGeometry x="373" y="165" width="60" height="30" as="geometry" />
        </mxCell>
        <mxCell id="FvgPysHojlI_TtdOGoiI-83" value="" style="group" parent="FvgPysHojlI_TtdOGoiI-63" vertex="1" connectable="0">
          <mxGeometry x="168" y="295" width="230" height="30" as="geometry" />
        </mxCell>
        <mxCell id="FvgPysHojlI_TtdOGoiI-69" value="item1" style="rounded=0;whiteSpace=wrap;html=1;strokeColor=default;strokeWidth=1;fontSize=16;" parent="FvgPysHojlI_TtdOGoiI-83" vertex="1">
          <mxGeometry x="60" width="50" height="30" as="geometry" />
        </mxCell>
        <mxCell id="FvgPysHojlI_TtdOGoiI-70" value="item2" style="rounded=0;whiteSpace=wrap;html=1;strokeColor=#b85450;strokeWidth=1;fontSize=16;fillColor=#f8cecc;" parent="FvgPysHojlI_TtdOGoiI-83" vertex="1">
          <mxGeometry x="110" width="50" height="30" as="geometry" />
        </mxCell>
        <mxCell id="FvgPysHojlI_TtdOGoiI-71" value="item3" style="rounded=0;whiteSpace=wrap;html=1;strokeColor=#d6b656;strokeWidth=1;fontSize=16;fillColor=#fff2cc;" parent="FvgPysHojlI_TtdOGoiI-83" vertex="1">
          <mxGeometry x="160" width="50" height="30" as="geometry" />
        </mxCell>
        <mxCell id="FvgPysHojlI_TtdOGoiI-72" value="Label" style="text;html=1;strokeColor=none;fillColor=none;align=center;verticalAlign=middle;whiteSpace=wrap;rounded=0;strokeWidth=1;fontSize=16;" parent="FvgPysHojlI_TtdOGoiI-83" vertex="1">
          <mxGeometry width="60" height="30" as="geometry" />
        </mxCell>
        <mxCell id="FvgPysHojlI_TtdOGoiI-107" style="edgeStyle=orthogonalEdgeStyle;rounded=0;orthogonalLoop=1;jettySize=auto;html=1;fontFamily=Helvetica;fontSize=16;fontColor=#1A1A1A;" parent="FvgPysHojlI_TtdOGoiI-63" source="FvgPysHojlI_TtdOGoiI-86" target="FvgPysHojlI_TtdOGoiI-103" edge="1">
          <mxGeometry relative="1" as="geometry" />
        </mxCell>
        <mxCell id="FvgPysHojlI_TtdOGoiI-86" value="item2" style="swimlane;fontStyle=0;childLayout=stackLayout;horizontal=1;startSize=30;horizontalStack=0;resizeParent=1;resizeParentMax=0;resizeLast=0;collapsible=1;marginBottom=0;strokeColor=#b85450;strokeWidth=1;fontSize=16;fillColor=#f8cecc;" parent="FvgPysHojlI_TtdOGoiI-63" vertex="1">
          <mxGeometry x="513" y="280" width="140" height="60" as="geometry" />
        </mxCell>
        <mxCell id="FvgPysHojlI_TtdOGoiI-87" value="title = &quot;参考资料&quot;" style="text;strokeColor=none;fillColor=none;align=left;verticalAlign=middle;spacingLeft=4;spacingRight=4;overflow=hidden;points=[[0,0.5],[1,0.5]];portConstraint=eastwest;rotatable=0;strokeWidth=1;fontSize=16;" parent="FvgPysHojlI_TtdOGoiI-86" vertex="1">
          <mxGeometry y="30" width="140" height="30" as="geometry" />
        </mxCell>
        <mxCell id="FvgPysHojlI_TtdOGoiI-88" style="edgeStyle=orthogonalEdgeStyle;rounded=0;orthogonalLoop=1;jettySize=auto;html=1;fontFamily=Helvetica;fontSize=16;fontColor=#1A1A1A;" parent="FvgPysHojlI_TtdOGoiI-63" source="FvgPysHojlI_TtdOGoiI-71" target="FvgPysHojlI_TtdOGoiI-86" edge="1">
          <mxGeometry relative="1" as="geometry" />
        </mxCell>
        <mxCell id="FvgPysHojlI_TtdOGoiI-155" style="edgeStyle=orthogonalEdgeStyle;rounded=0;orthogonalLoop=1;jettySize=auto;html=1;entryX=0.5;entryY=1;entryDx=0;entryDy=0;fontFamily=Helvetica;fontSize=16;fontColor=#1A1A1A;" parent="FvgPysHojlI_TtdOGoiI-63" source="FvgPysHojlI_TtdOGoiI-102" target="FvgPysHojlI_TtdOGoiI-70" edge="1">
          <mxGeometry relative="1" as="geometry">
            <Array as="points">
              <mxPoint x="838" y="375" />
              <mxPoint x="303" y="375" />
            </Array>
          </mxGeometry>
        </mxCell>
        <mxCell id="FvgPysHojlI_TtdOGoiI-102" value="item2" style="swimlane;fontStyle=0;childLayout=stackLayout;horizontal=1;startSize=30;horizontalStack=0;resizeParent=1;resizeParentMax=0;resizeLast=0;collapsible=1;marginBottom=0;strokeColor=#b85450;strokeWidth=1;fontSize=16;fillColor=#f8cecc;" parent="FvgPysHojlI_TtdOGoiI-63" vertex="1">
          <mxGeometry x="768" y="265" width="140" height="90" as="geometry" />
        </mxCell>
        <mxCell id="FvgPysHojlI_TtdOGoiI-103" value="title = &quot;参考资料&quot;" style="text;strokeColor=none;fillColor=none;align=left;verticalAlign=middle;spacingLeft=4;spacingRight=4;overflow=hidden;points=[[0,0.5],[1,0.5]];portConstraint=eastwest;rotatable=0;strokeWidth=1;fontSize=16;" parent="FvgPysHojlI_TtdOGoiI-102" vertex="1">
          <mxGeometry y="30" width="140" height="30" as="geometry" />
        </mxCell>
        <mxCell id="FvgPysHojlI_TtdOGoiI-106" value="sons = [item3]" style="text;strokeColor=none;fillColor=none;align=left;verticalAlign=middle;spacingLeft=4;spacingRight=4;overflow=hidden;points=[[0,0.5],[1,0.5]];portConstraint=eastwest;rotatable=0;strokeWidth=1;fontSize=16;" parent="FvgPysHojlI_TtdOGoiI-102" vertex="1">
          <mxGeometry y="60" width="140" height="30" as="geometry" />
        </mxCell>
        <mxCell id="FvgPysHojlI_TtdOGoiI-109" value="parent" style="text;html=1;strokeColor=none;fillColor=none;align=center;verticalAlign=middle;whiteSpace=wrap;rounded=0;labelBackgroundColor=none;strokeWidth=1;fontFamily=Helvetica;fontSize=16;fontColor=#1A1A1A;" parent="FvgPysHojlI_TtdOGoiI-63" vertex="1">
          <mxGeometry x="418" y="280" width="60" height="30" as="geometry" />
        </mxCell>
        <mxCell id="FvgPysHojlI_TtdOGoiI-110" value="update&amp;nbsp;" style="text;html=1;strokeColor=none;fillColor=none;align=center;verticalAlign=middle;whiteSpace=wrap;rounded=0;labelBackgroundColor=none;strokeWidth=1;fontFamily=Helvetica;fontSize=16;fontColor=#1A1A1A;" parent="FvgPysHojlI_TtdOGoiI-63" vertex="1">
          <mxGeometry x="678" y="310" width="60" height="30" as="geometry" />
        </mxCell>
        <mxCell id="FvgPysHojlI_TtdOGoiI-108" style="edgeStyle=orthogonalEdgeStyle;rounded=0;orthogonalLoop=1;jettySize=auto;html=1;fontFamily=Helvetica;fontSize=16;fontColor=#1A1A1A;dashed=1;entryX=0.5;entryY=0;entryDx=0;entryDy=0;" parent="FvgPysHojlI_TtdOGoiI-63" source="FvgPysHojlI_TtdOGoiI-74" target="FvgPysHojlI_TtdOGoiI-110" edge="1">
          <mxGeometry relative="1" as="geometry">
            <mxPoint x="753" y="305" as="targetPoint" />
          </mxGeometry>
        </mxCell>
        <mxCell id="FvgPysHojlI_TtdOGoiI-111" value="add-bookmark command" style="swimlane;startSize=20;horizontal=1;containerType=tree;strokeColor=default;strokeWidth=1;fontSize=16;" parent="1" vertex="1">
          <mxGeometry x="-430" y="1900" width="1040" height="520" as="geometry" />
        </mxCell>
        <mxCell id="FvgPysHojlI_TtdOGoiI-112" style="edgeStyle=orthogonalEdgeStyle;rounded=0;orthogonalLoop=1;jettySize=auto;html=1;entryX=0.5;entryY=0;entryDx=0;entryDy=0;fontFamily=Helvetica;fontSize=16;fontColor=#1A1A1A;" parent="FvgPysHojlI_TtdOGoiI-111" source="FvgPysHojlI_TtdOGoiI-113" target="FvgPysHojlI_TtdOGoiI-118" edge="1">
          <mxGeometry relative="1" as="geometry">
            <Array as="points">
              <mxPoint x="200" y="162" />
              <mxPoint x="200" y="162" />
            </Array>
          </mxGeometry>
        </mxCell>
        <mxCell id="FvgPysHojlI_TtdOGoiI-113" value="list = [&quot;add-bookmark&quot;, &quot;elearning&quot;, &quot;@&quot;, &quot;https://elearning.fudan.edu.cn/courses&quot;, &quot;课程&quot;]" style="text;html=1;strokeColor=none;fillColor=none;align=center;verticalAlign=middle;whiteSpace=wrap;rounded=0;strokeWidth=1;fontSize=16;spacingTop=0;" parent="FvgPysHojlI_TtdOGoiI-111" vertex="1">
          <mxGeometry x="10" y="27" width="380" height="73" as="geometry" />
        </mxCell>
        <mxCell id="FvgPysHojlI_TtdOGoiI-145" style="edgeStyle=orthogonalEdgeStyle;rounded=0;orthogonalLoop=1;jettySize=auto;html=1;fontFamily=Helvetica;fontSize=16;fontColor=#1A1A1A;" parent="FvgPysHojlI_TtdOGoiI-111" source="FvgPysHojlI_TtdOGoiI-118" target="FvgPysHojlI_TtdOGoiI-123" edge="1">
          <mxGeometry relative="1" as="geometry" />
        </mxCell>
        <mxCell id="FvgPysHojlI_TtdOGoiI-118" value="&lt;pre style=&quot;&quot;&gt;&lt;font face=&quot;Helvetica&quot; style=&quot;font-size: 16px;&quot; color=&quot;#1a1a1a&quot;&gt;execute(Label bookMark)&lt;/font&gt;&lt;/pre&gt;" style="rounded=1;whiteSpace=wrap;html=1;strokeColor=default;strokeWidth=1;fontSize=16;" parent="FvgPysHojlI_TtdOGoiI-111" vertex="1">
          <mxGeometry x="85" y="202" width="230" height="50" as="geometry" />
        </mxCell>
        <mxCell id="UZfXPwGcjb_lp-zjG4FB-93" style="edgeStyle=orthogonalEdgeStyle;rounded=0;orthogonalLoop=1;jettySize=auto;html=1;entryX=0.429;entryY=-0.033;entryDx=0;entryDy=0;entryPerimeter=0;dashed=1;fontFamily=Helvetica;fontSize=16;fontColor=#1A1A1A;" parent="FvgPysHojlI_TtdOGoiI-111" source="FvgPysHojlI_TtdOGoiI-138" target="FvgPysHojlI_TtdOGoiI-141" edge="1">
          <mxGeometry relative="1" as="geometry" />
        </mxCell>
        <mxCell id="FvgPysHojlI_TtdOGoiI-138" value="find" style="text;html=1;strokeColor=none;fillColor=none;align=center;verticalAlign=middle;whiteSpace=wrap;rounded=0;labelBackgroundColor=none;strokeWidth=1;fontFamily=Helvetica;fontSize=16;fontColor=#1A1A1A;" parent="FvgPysHojlI_TtdOGoiI-111" vertex="1">
          <mxGeometry x="200" y="280" width="60" height="30" as="geometry" />
        </mxCell>
        <mxCell id="FvgPysHojlI_TtdOGoiI-152" style="edgeStyle=orthogonalEdgeStyle;rounded=0;orthogonalLoop=1;jettySize=auto;html=1;fontFamily=Helvetica;fontSize=16;fontColor=#1A1A1A;" parent="FvgPysHojlI_TtdOGoiI-111" source="FvgPysHojlI_TtdOGoiI-141" target="FvgPysHojlI_TtdOGoiI-147" edge="1">
          <mxGeometry relative="1" as="geometry" />
        </mxCell>
        <mxCell id="FvgPysHojlI_TtdOGoiI-141" value="item2" style="swimlane;fontStyle=0;childLayout=stackLayout;horizontal=1;startSize=30;horizontalStack=0;resizeParent=1;resizeParentMax=0;resizeLast=0;collapsible=1;marginBottom=0;strokeColor=#b85450;strokeWidth=1;fontSize=16;fillColor=#f8cecc;" parent="FvgPysHojlI_TtdOGoiI-111" vertex="1">
          <mxGeometry x="370" y="322" width="140" height="60" as="geometry" />
        </mxCell>
        <mxCell id="FvgPysHojlI_TtdOGoiI-142" value="title = &quot;课程&quot;" style="text;strokeColor=none;fillColor=none;align=left;verticalAlign=middle;spacingLeft=4;spacingRight=4;overflow=hidden;points=[[0,0.5],[1,0.5]];portConstraint=eastwest;rotatable=0;strokeWidth=1;fontSize=16;" parent="FvgPysHojlI_TtdOGoiI-141" vertex="1">
          <mxGeometry y="30" width="140" height="30" as="geometry" />
        </mxCell>
        <mxCell id="FvgPysHojlI_TtdOGoiI-121" value="" style="group" parent="FvgPysHojlI_TtdOGoiI-111" vertex="1" connectable="0">
          <mxGeometry x="65" y="337" width="230" height="30" as="geometry" />
        </mxCell>
        <mxCell id="FvgPysHojlI_TtdOGoiI-122" value="item1" style="rounded=0;whiteSpace=wrap;html=1;strokeColor=default;strokeWidth=1;fontSize=16;" parent="FvgPysHojlI_TtdOGoiI-121" vertex="1">
          <mxGeometry x="60" width="50" height="30" as="geometry" />
        </mxCell>
        <mxCell id="FvgPysHojlI_TtdOGoiI-123" value="item2" style="rounded=0;whiteSpace=wrap;html=1;strokeColor=#b85450;strokeWidth=1;fontSize=16;fillColor=#f8cecc;" parent="FvgPysHojlI_TtdOGoiI-121" vertex="1">
          <mxGeometry x="110" width="50" height="30" as="geometry" />
        </mxCell>
        <mxCell id="FvgPysHojlI_TtdOGoiI-125" value="Label" style="text;html=1;strokeColor=none;fillColor=none;align=center;verticalAlign=middle;whiteSpace=wrap;rounded=0;strokeWidth=1;fontSize=16;" parent="FvgPysHojlI_TtdOGoiI-121" vertex="1">
          <mxGeometry width="60" height="30" as="geometry" />
        </mxCell>
        <mxCell id="FvgPysHojlI_TtdOGoiI-136" value="item3" style="rounded=0;whiteSpace=wrap;html=1;strokeColor=default;strokeWidth=1;fontSize=16;" parent="FvgPysHojlI_TtdOGoiI-121" vertex="1">
          <mxGeometry x="160" width="50" height="30" as="geometry" />
        </mxCell>
        <mxCell id="FvgPysHojlI_TtdOGoiI-146" style="edgeStyle=orthogonalEdgeStyle;rounded=0;orthogonalLoop=1;jettySize=auto;html=1;fontFamily=Helvetica;fontSize=16;fontColor=#1A1A1A;entryX=0;entryY=0.5;entryDx=0;entryDy=0;" parent="FvgPysHojlI_TtdOGoiI-111" source="FvgPysHojlI_TtdOGoiI-136" target="FvgPysHojlI_TtdOGoiI-141" edge="1">
          <mxGeometry relative="1" as="geometry">
            <mxPoint x="380" y="362" as="targetPoint" />
          </mxGeometry>
        </mxCell>
        <mxCell id="FvgPysHojlI_TtdOGoiI-154" style="edgeStyle=orthogonalEdgeStyle;rounded=0;orthogonalLoop=1;jettySize=auto;html=1;entryX=0.5;entryY=1;entryDx=0;entryDy=0;fontFamily=Helvetica;fontSize=16;fontColor=#1A1A1A;" parent="FvgPysHojlI_TtdOGoiI-111" source="FvgPysHojlI_TtdOGoiI-147" target="FvgPysHojlI_TtdOGoiI-123" edge="1">
          <mxGeometry relative="1" as="geometry">
            <Array as="points">
              <mxPoint x="800" y="442" />
              <mxPoint x="200" y="442" />
            </Array>
          </mxGeometry>
        </mxCell>
        <mxCell id="FvgPysHojlI_TtdOGoiI-147" value="item2" style="swimlane;fontStyle=0;childLayout=stackLayout;horizontal=1;startSize=30;horizontalStack=0;resizeParent=1;resizeParentMax=0;resizeLast=0;collapsible=1;marginBottom=0;strokeColor=#b85450;strokeWidth=1;fontSize=16;fillColor=#f8cecc;" parent="FvgPysHojlI_TtdOGoiI-111" vertex="1">
          <mxGeometry x="640" y="282" width="300" height="140" as="geometry" />
        </mxCell>
        <mxCell id="FvgPysHojlI_TtdOGoiI-148" value="title = &quot;课程&quot;" style="text;strokeColor=none;fillColor=none;align=left;verticalAlign=middle;spacingLeft=4;spacingRight=4;overflow=hidden;points=[[0,0.5],[1,0.5]];portConstraint=eastwest;rotatable=0;strokeWidth=1;fontSize=16;" parent="FvgPysHojlI_TtdOGoiI-147" vertex="1">
          <mxGeometry y="30" width="300" height="30" as="geometry" />
        </mxCell>
        <mxCell id="FvgPysHojlI_TtdOGoiI-149" value="bookmarkName = &quot;elearning&quot;" style="text;strokeColor=none;fillColor=none;align=left;verticalAlign=middle;spacingLeft=4;spacingRight=4;overflow=hidden;points=[[0,0.5],[1,0.5]];portConstraint=eastwest;rotatable=0;strokeWidth=1;fontSize=16;" parent="FvgPysHojlI_TtdOGoiI-147" vertex="1">
          <mxGeometry y="60" width="300" height="30" as="geometry" />
        </mxCell>
        <mxCell id="FvgPysHojlI_TtdOGoiI-150" value="hyperlink = &quot;https://elearning.fudan.edu.cn/courses&quot;" style="text;strokeColor=none;fillColor=none;align=left;verticalAlign=middle;spacingLeft=4;spacingRight=4;overflow=hidden;points=[[0,0.5],[1,0.5]];portConstraint=eastwest;rotatable=0;strokeWidth=1;fontSize=16;whiteSpace=wrap;" parent="FvgPysHojlI_TtdOGoiI-147" vertex="1">
          <mxGeometry y="90" width="300" height="50" as="geometry" />
        </mxCell>
        <mxCell id="FvgPysHojlI_TtdOGoiI-153" value="update&amp;nbsp;" style="text;html=1;strokeColor=none;fillColor=none;align=center;verticalAlign=middle;whiteSpace=wrap;rounded=0;labelBackgroundColor=none;strokeWidth=1;fontFamily=Helvetica;fontSize=16;fontColor=#1A1A1A;" parent="FvgPysHojlI_TtdOGoiI-111" vertex="1">
          <mxGeometry x="550" y="320" width="60" height="30" as="geometry" />
        </mxCell>
        <mxCell id="FvgPysHojlI_TtdOGoiI-156" value="delete-title command" style="swimlane;startSize=20;horizontal=1;containerType=tree;strokeColor=default;strokeWidth=1;fontSize=16;" parent="1" vertex="1">
          <mxGeometry x="-340" y="2560" width="860" height="540" as="geometry" />
        </mxCell>
        <mxCell id="FvgPysHojlI_TtdOGoiI-157" style="edgeStyle=orthogonalEdgeStyle;rounded=0;orthogonalLoop=1;jettySize=auto;html=1;entryX=0;entryY=0.5;entryDx=0;entryDy=0;fontFamily=Helvetica;fontSize=16;fontColor=#1A1A1A;" parent="FvgPysHojlI_TtdOGoiI-156" source="FvgPysHojlI_TtdOGoiI-158" target="FvgPysHojlI_TtdOGoiI-163" edge="1">
          <mxGeometry relative="1" as="geometry" />
        </mxCell>
        <mxCell id="FvgPysHojlI_TtdOGoiI-158" value="list = [&quot;delete-title&quot;, &quot;函数式&quot;]" style="text;html=1;strokeColor=none;fillColor=none;align=center;verticalAlign=middle;whiteSpace=wrap;rounded=0;strokeWidth=1;fontSize=16;" parent="FvgPysHojlI_TtdOGoiI-156" vertex="1">
          <mxGeometry x="10" y="50" width="240" height="30" as="geometry" />
        </mxCell>
        <mxCell id="FvgPysHojlI_TtdOGoiI-186" style="edgeStyle=orthogonalEdgeStyle;rounded=0;orthogonalLoop=1;jettySize=auto;html=1;entryX=0.5;entryY=0;entryDx=0;entryDy=0;fontFamily=Helvetica;fontSize=16;fontColor=#1A1A1A;" parent="FvgPysHojlI_TtdOGoiI-156" source="FvgPysHojlI_TtdOGoiI-163" target="FvgPysHojlI_TtdOGoiI-183" edge="1">
          <mxGeometry relative="1" as="geometry">
            <Array as="points">
              <mxPoint x="490" y="130" />
              <mxPoint x="195" y="130" />
            </Array>
          </mxGeometry>
        </mxCell>
        <mxCell id="FvgPysHojlI_TtdOGoiI-163" value="&lt;pre style=&quot;&quot;&gt;&lt;font face=&quot;Helvetica&quot; style=&quot;font-size: 16px;&quot; color=&quot;#1a1a1a&quot;&gt;execute(Label bookMark)&lt;/font&gt;&lt;/pre&gt;" style="rounded=1;whiteSpace=wrap;html=1;strokeColor=default;strokeWidth=1;fontSize=16;" parent="FvgPysHojlI_TtdOGoiI-156" vertex="1">
          <mxGeometry x="380" y="40" width="230" height="50" as="geometry" />
        </mxCell>
        <mxCell id="FvgPysHojlI_TtdOGoiI-182" value="item1" style="rounded=0;whiteSpace=wrap;html=1;strokeColor=#9673a6;strokeWidth=1;fontSize=16;fillColor=#e1d5e7;" parent="FvgPysHojlI_TtdOGoiI-156" vertex="1">
          <mxGeometry x="120" y="215" width="50" height="30" as="geometry" />
        </mxCell>
        <mxCell id="FvgPysHojlI_TtdOGoiI-183" value="item2" style="rounded=0;whiteSpace=wrap;html=1;strokeColor=#b85450;strokeWidth=1;fontSize=16;shadow=0;fillColor=#f8cecc;" parent="FvgPysHojlI_TtdOGoiI-156" vertex="1">
          <mxGeometry x="170" y="215" width="50" height="30" as="geometry" />
        </mxCell>
        <mxCell id="UZfXPwGcjb_lp-zjG4FB-17" style="edgeStyle=orthogonalEdgeStyle;rounded=0;orthogonalLoop=1;jettySize=auto;html=1;fontFamily=Helvetica;fontSize=16;fontColor=#1A1A1A;" parent="FvgPysHojlI_TtdOGoiI-156" source="FvgPysHojlI_TtdOGoiI-184" target="UZfXPwGcjb_lp-zjG4FB-15" edge="1">
          <mxGeometry relative="1" as="geometry" />
        </mxCell>
        <mxCell id="FvgPysHojlI_TtdOGoiI-184" value="item3" style="rounded=0;whiteSpace=wrap;html=1;strokeColor=default;strokeWidth=1;fontSize=16;" parent="FvgPysHojlI_TtdOGoiI-156" vertex="1">
          <mxGeometry x="220" y="215" width="50" height="30" as="geometry" />
        </mxCell>
        <mxCell id="FvgPysHojlI_TtdOGoiI-185" value="Label" style="text;html=1;strokeColor=none;fillColor=none;align=center;verticalAlign=middle;whiteSpace=wrap;rounded=0;strokeWidth=1;fontSize=16;" parent="FvgPysHojlI_TtdOGoiI-156" vertex="1">
          <mxGeometry x="60" y="215" width="60" height="30" as="geometry" />
        </mxCell>
        <mxCell id="UZfXPwGcjb_lp-zjG4FB-92" style="edgeStyle=orthogonalEdgeStyle;rounded=0;orthogonalLoop=1;jettySize=auto;html=1;entryX=0.5;entryY=0;entryDx=0;entryDy=0;fontFamily=Helvetica;fontSize=16;fontColor=#1A1A1A;dashed=1;" parent="FvgPysHojlI_TtdOGoiI-156" source="FvgPysHojlI_TtdOGoiI-187" target="UZfXPwGcjb_lp-zjG4FB-15" edge="1">
          <mxGeometry relative="1" as="geometry" />
        </mxCell>
        <mxCell id="FvgPysHojlI_TtdOGoiI-187" value="find_title()" style="text;html=1;strokeColor=none;fillColor=none;align=center;verticalAlign=middle;whiteSpace=wrap;rounded=0;labelBackgroundColor=none;strokeWidth=1;fontFamily=Helvetica;fontSize=16;fontColor=#1A1A1A;" parent="FvgPysHojlI_TtdOGoiI-156" vertex="1">
          <mxGeometry x="260" y="100" width="150" height="30" as="geometry" />
        </mxCell>
        <mxCell id="UZfXPwGcjb_lp-zjG4FB-1" value="item1" style="rounded=0;whiteSpace=wrap;html=1;strokeColor=#9673a6;strokeWidth=1;fontSize=16;fillColor=#e1d5e7;" parent="FvgPysHojlI_TtdOGoiI-156" vertex="1">
          <mxGeometry x="120" y="410" width="50" height="30" as="geometry" />
        </mxCell>
        <mxCell id="UZfXPwGcjb_lp-zjG4FB-3" value="item3" style="rounded=0;whiteSpace=wrap;html=1;strokeColor=default;strokeWidth=1;fontSize=16;" parent="FvgPysHojlI_TtdOGoiI-156" vertex="1">
          <mxGeometry x="170" y="410" width="50" height="30" as="geometry" />
        </mxCell>
        <mxCell id="UZfXPwGcjb_lp-zjG4FB-6" value="delete_item()" style="text;html=1;strokeColor=none;fillColor=none;align=center;verticalAlign=middle;whiteSpace=wrap;rounded=0;labelBackgroundColor=none;strokeWidth=1;fontFamily=Helvetica;fontSize=16;fontColor=#1A1A1A;" parent="FvgPysHojlI_TtdOGoiI-156" vertex="1">
          <mxGeometry x="220" y="290" width="150" height="30" as="geometry" />
        </mxCell>
        <mxCell id="UZfXPwGcjb_lp-zjG4FB-50" style="edgeStyle=orthogonalEdgeStyle;rounded=0;orthogonalLoop=1;jettySize=auto;html=1;fontFamily=Helvetica;fontSize=16;fontColor=#1A1A1A;" parent="FvgPysHojlI_TtdOGoiI-156" source="UZfXPwGcjb_lp-zjG4FB-10" target="UZfXPwGcjb_lp-zjG4FB-47" edge="1">
          <mxGeometry relative="1" as="geometry" />
        </mxCell>
        <mxCell id="UZfXPwGcjb_lp-zjG4FB-10" value="item1" style="swimlane;fontStyle=0;childLayout=stackLayout;horizontal=1;startSize=30;horizontalStack=0;resizeParent=1;resizeParentMax=0;resizeLast=0;collapsible=1;marginBottom=0;strokeColor=#9673a6;strokeWidth=1;fontSize=16;fillColor=#e1d5e7;" parent="FvgPysHojlI_TtdOGoiI-156" vertex="1">
          <mxGeometry x="350" y="380" width="140" height="90" as="geometry" />
        </mxCell>
        <mxCell id="UZfXPwGcjb_lp-zjG4FB-11" value="title = &quot;参考资料&quot;" style="text;strokeColor=none;fillColor=none;align=left;verticalAlign=middle;spacingLeft=4;spacingRight=4;overflow=hidden;points=[[0,0.5],[1,0.5]];portConstraint=eastwest;rotatable=0;strokeWidth=1;fontSize=16;" parent="UZfXPwGcjb_lp-zjG4FB-10" vertex="1">
          <mxGeometry y="30" width="140" height="30" as="geometry" />
        </mxCell>
        <mxCell id="UZfXPwGcjb_lp-zjG4FB-12" value="sons = [item2]" style="text;strokeColor=none;fillColor=none;align=left;verticalAlign=middle;spacingLeft=4;spacingRight=4;overflow=hidden;points=[[0,0.5],[1,0.5]];portConstraint=eastwest;rotatable=0;strokeWidth=1;fontSize=16;" parent="UZfXPwGcjb_lp-zjG4FB-10" vertex="1">
          <mxGeometry y="60" width="140" height="30" as="geometry" />
        </mxCell>
        <mxCell id="UZfXPwGcjb_lp-zjG4FB-13" style="edgeStyle=orthogonalEdgeStyle;rounded=0;orthogonalLoop=1;jettySize=auto;html=1;fontFamily=Helvetica;fontSize=16;fontColor=#1A1A1A;entryX=0;entryY=0.5;entryDx=0;entryDy=0;exitX=1;exitY=0.5;exitDx=0;exitDy=0;" parent="FvgPysHojlI_TtdOGoiI-156" source="UZfXPwGcjb_lp-zjG4FB-3" target="UZfXPwGcjb_lp-zjG4FB-11" edge="1">
          <mxGeometry relative="1" as="geometry">
            <mxPoint x="340" y="475" as="targetPoint" />
          </mxGeometry>
        </mxCell>
        <mxCell id="UZfXPwGcjb_lp-zjG4FB-14" value="adjust_sons()" style="text;html=1;strokeColor=none;fillColor=none;align=center;verticalAlign=middle;whiteSpace=wrap;rounded=0;labelBackgroundColor=none;strokeWidth=1;fontFamily=Helvetica;fontSize=16;fontColor=#1A1A1A;" parent="FvgPysHojlI_TtdOGoiI-156" vertex="1">
          <mxGeometry x="500" y="400" width="150" height="30" as="geometry" />
        </mxCell>
        <mxCell id="UZfXPwGcjb_lp-zjG4FB-45" style="edgeStyle=orthogonalEdgeStyle;rounded=0;orthogonalLoop=1;jettySize=auto;html=1;fontFamily=Helvetica;fontSize=16;fontColor=#1A1A1A;exitX=0.543;exitY=1.033;exitDx=0;exitDy=0;exitPerimeter=0;" parent="FvgPysHojlI_TtdOGoiI-156" source="UZfXPwGcjb_lp-zjG4FB-16" target="UZfXPwGcjb_lp-zjG4FB-44" edge="1">
          <mxGeometry relative="1" as="geometry">
            <Array as="points">
              <mxPoint x="426" y="320" />
              <mxPoint x="90" y="320" />
            </Array>
          </mxGeometry>
        </mxCell>
        <mxCell id="UZfXPwGcjb_lp-zjG4FB-15" value="item2" style="swimlane;fontStyle=0;childLayout=stackLayout;horizontal=1;startSize=30;horizontalStack=0;resizeParent=1;resizeParentMax=0;resizeLast=0;collapsible=1;marginBottom=0;strokeColor=#b85450;strokeWidth=1;fontSize=16;fillColor=#f8cecc;" parent="FvgPysHojlI_TtdOGoiI-156" vertex="1">
          <mxGeometry x="350" y="200" width="140" height="60" as="geometry" />
        </mxCell>
        <mxCell id="UZfXPwGcjb_lp-zjG4FB-16" value="title = &quot;函数式&quot;" style="text;strokeColor=none;fillColor=none;align=left;verticalAlign=middle;spacingLeft=4;spacingRight=4;overflow=hidden;points=[[0,0.5],[1,0.5]];portConstraint=eastwest;rotatable=0;strokeWidth=1;fontSize=16;" parent="UZfXPwGcjb_lp-zjG4FB-15" vertex="1">
          <mxGeometry y="30" width="140" height="30" as="geometry" />
        </mxCell>
        <mxCell id="UZfXPwGcjb_lp-zjG4FB-44" value="Label" style="text;html=1;strokeColor=none;fillColor=none;align=center;verticalAlign=middle;whiteSpace=wrap;rounded=0;strokeWidth=1;fontSize=16;" parent="FvgPysHojlI_TtdOGoiI-156" vertex="1">
          <mxGeometry x="60" y="410" width="60" height="30" as="geometry" />
        </mxCell>
        <mxCell id="UZfXPwGcjb_lp-zjG4FB-51" style="edgeStyle=orthogonalEdgeStyle;rounded=0;orthogonalLoop=1;jettySize=auto;html=1;entryX=0.5;entryY=1;entryDx=0;entryDy=0;fontFamily=Helvetica;fontSize=16;fontColor=#1A1A1A;" parent="FvgPysHojlI_TtdOGoiI-156" source="UZfXPwGcjb_lp-zjG4FB-47" target="UZfXPwGcjb_lp-zjG4FB-1" edge="1">
          <mxGeometry relative="1" as="geometry">
            <Array as="points">
              <mxPoint x="720" y="500" />
              <mxPoint x="145" y="500" />
            </Array>
          </mxGeometry>
        </mxCell>
        <mxCell id="UZfXPwGcjb_lp-zjG4FB-47" value="item1" style="swimlane;fontStyle=0;childLayout=stackLayout;horizontal=1;startSize=30;horizontalStack=0;resizeParent=1;resizeParentMax=0;resizeLast=0;collapsible=1;marginBottom=0;strokeColor=#9673a6;strokeWidth=1;fontSize=16;fillColor=#e1d5e7;" parent="FvgPysHojlI_TtdOGoiI-156" vertex="1">
          <mxGeometry x="650" y="395" width="140" height="60" as="geometry" />
        </mxCell>
        <mxCell id="UZfXPwGcjb_lp-zjG4FB-48" value="title = &quot;参考资料&quot;" style="text;strokeColor=none;fillColor=none;align=left;verticalAlign=middle;spacingLeft=4;spacingRight=4;overflow=hidden;points=[[0,0.5],[1,0.5]];portConstraint=eastwest;rotatable=0;strokeWidth=1;fontSize=16;" parent="UZfXPwGcjb_lp-zjG4FB-47" vertex="1">
          <mxGeometry y="30" width="140" height="30" as="geometry" />
        </mxCell>
        <mxCell id="UZfXPwGcjb_lp-zjG4FB-52" value="delete-bookmark command" style="swimlane;startSize=20;horizontal=1;containerType=tree;strokeColor=default;strokeWidth=1;fontSize=16;" parent="1" vertex="1">
          <mxGeometry x="-330" y="3250" width="990" height="510" as="geometry" />
        </mxCell>
        <mxCell id="UZfXPwGcjb_lp-zjG4FB-74" style="edgeStyle=orthogonalEdgeStyle;rounded=0;orthogonalLoop=1;jettySize=auto;html=1;entryX=0.5;entryY=0;entryDx=0;entryDy=0;fontFamily=Helvetica;fontSize=16;fontColor=#1A1A1A;" parent="UZfXPwGcjb_lp-zjG4FB-52" source="UZfXPwGcjb_lp-zjG4FB-54" target="UZfXPwGcjb_lp-zjG4FB-73" edge="1">
          <mxGeometry relative="1" as="geometry" />
        </mxCell>
        <mxCell id="UZfXPwGcjb_lp-zjG4FB-54" value="list = [&quot;delete-bookmark&quot;, &quot;elarning&quot;]" style="text;html=1;strokeColor=none;fillColor=none;align=center;verticalAlign=middle;whiteSpace=wrap;rounded=0;strokeWidth=1;fontSize=16;spacingTop=0;" parent="UZfXPwGcjb_lp-zjG4FB-52" vertex="1">
          <mxGeometry x="10" y="30" width="310" height="43" as="geometry" />
        </mxCell>
        <mxCell id="UZfXPwGcjb_lp-zjG4FB-61" value="" style="group" parent="UZfXPwGcjb_lp-zjG4FB-52" vertex="1" connectable="0">
          <mxGeometry x="30" y="305" width="230" height="30" as="geometry" />
        </mxCell>
        <mxCell id="UZfXPwGcjb_lp-zjG4FB-62" value="item1" style="rounded=0;whiteSpace=wrap;html=1;strokeColor=default;strokeWidth=1;fontSize=16;" parent="UZfXPwGcjb_lp-zjG4FB-61" vertex="1">
          <mxGeometry x="60" width="50" height="30" as="geometry" />
        </mxCell>
        <mxCell id="UZfXPwGcjb_lp-zjG4FB-64" value="Label" style="text;html=1;strokeColor=none;fillColor=none;align=center;verticalAlign=middle;whiteSpace=wrap;rounded=0;strokeWidth=1;fontSize=16;" parent="UZfXPwGcjb_lp-zjG4FB-61" vertex="1">
          <mxGeometry width="60" height="30" as="geometry" />
        </mxCell>
        <mxCell id="UZfXPwGcjb_lp-zjG4FB-65" value="item3" style="rounded=0;whiteSpace=wrap;html=1;strokeColor=default;strokeWidth=1;fontSize=16;" parent="UZfXPwGcjb_lp-zjG4FB-61" vertex="1">
          <mxGeometry x="160" width="50" height="30" as="geometry" />
        </mxCell>
        <mxCell id="UZfXPwGcjb_lp-zjG4FB-75" value="item2" style="rounded=0;whiteSpace=wrap;html=1;strokeColor=#b85450;strokeWidth=1;fontSize=16;fillColor=#f8cecc;" parent="UZfXPwGcjb_lp-zjG4FB-61" vertex="1">
          <mxGeometry x="110" width="50" height="30" as="geometry" />
        </mxCell>
        <mxCell id="UZfXPwGcjb_lp-zjG4FB-77" style="edgeStyle=orthogonalEdgeStyle;rounded=0;orthogonalLoop=1;jettySize=auto;html=1;entryX=0.5;entryY=0;entryDx=0;entryDy=0;fontFamily=Helvetica;fontSize=16;fontColor=#1A1A1A;" parent="UZfXPwGcjb_lp-zjG4FB-52" source="UZfXPwGcjb_lp-zjG4FB-73" target="UZfXPwGcjb_lp-zjG4FB-75" edge="1">
          <mxGeometry relative="1" as="geometry" />
        </mxCell>
        <mxCell id="UZfXPwGcjb_lp-zjG4FB-73" value="&lt;pre style=&quot;&quot;&gt;&lt;font face=&quot;Helvetica&quot; style=&quot;font-size: 16px;&quot; color=&quot;#1a1a1a&quot;&gt;execute(Label bookMark)&lt;/font&gt;&lt;/pre&gt;" style="rounded=1;whiteSpace=wrap;html=1;strokeColor=default;strokeWidth=1;fontSize=16;" parent="UZfXPwGcjb_lp-zjG4FB-52" vertex="1">
          <mxGeometry x="50" y="120" width="230" height="50" as="geometry" />
        </mxCell>
        <mxCell id="UZfXPwGcjb_lp-zjG4FB-86" style="edgeStyle=orthogonalEdgeStyle;rounded=0;orthogonalLoop=1;jettySize=auto;html=1;fontFamily=Helvetica;fontSize=16;fontColor=#1A1A1A;dashed=1;" parent="UZfXPwGcjb_lp-zjG4FB-52" source="UZfXPwGcjb_lp-zjG4FB-78" target="UZfXPwGcjb_lp-zjG4FB-79" edge="1">
          <mxGeometry relative="1" as="geometry" />
        </mxCell>
        <mxCell id="UZfXPwGcjb_lp-zjG4FB-78" value="find_bookmark()" style="text;html=1;strokeColor=none;fillColor=none;align=center;verticalAlign=middle;whiteSpace=wrap;rounded=0;shadow=0;labelBackgroundColor=none;strokeWidth=1;fontFamily=Helvetica;fontSize=16;fontColor=#1A1A1A;" parent="UZfXPwGcjb_lp-zjG4FB-52" vertex="1">
          <mxGeometry x="170" y="210" width="130" height="30" as="geometry" />
        </mxCell>
        <mxCell id="UZfXPwGcjb_lp-zjG4FB-88" style="edgeStyle=orthogonalEdgeStyle;rounded=0;orthogonalLoop=1;jettySize=auto;html=1;fontFamily=Helvetica;fontSize=16;fontColor=#1A1A1A;" parent="UZfXPwGcjb_lp-zjG4FB-52" source="UZfXPwGcjb_lp-zjG4FB-79" target="UZfXPwGcjb_lp-zjG4FB-83" edge="1">
          <mxGeometry relative="1" as="geometry" />
        </mxCell>
        <mxCell id="UZfXPwGcjb_lp-zjG4FB-79" value="item2" style="swimlane;fontStyle=0;childLayout=stackLayout;horizontal=1;startSize=30;horizontalStack=0;resizeParent=1;resizeParentMax=0;resizeLast=0;collapsible=1;marginBottom=0;strokeColor=#b85450;strokeWidth=1;fontSize=16;fillColor=#f8cecc;" parent="UZfXPwGcjb_lp-zjG4FB-52" vertex="1">
          <mxGeometry x="380" y="250" width="300" height="140" as="geometry" />
        </mxCell>
        <mxCell id="UZfXPwGcjb_lp-zjG4FB-80" value="title = &quot;课程&quot;" style="text;strokeColor=none;fillColor=none;align=left;verticalAlign=middle;spacingLeft=4;spacingRight=4;overflow=hidden;points=[[0,0.5],[1,0.5]];portConstraint=eastwest;rotatable=0;strokeWidth=1;fontSize=16;" parent="UZfXPwGcjb_lp-zjG4FB-79" vertex="1">
          <mxGeometry y="30" width="300" height="30" as="geometry" />
        </mxCell>
        <mxCell id="UZfXPwGcjb_lp-zjG4FB-81" value="bookmarkName = &quot;elearning&quot;" style="text;strokeColor=none;fillColor=none;align=left;verticalAlign=middle;spacingLeft=4;spacingRight=4;overflow=hidden;points=[[0,0.5],[1,0.5]];portConstraint=eastwest;rotatable=0;strokeWidth=1;fontSize=16;" parent="UZfXPwGcjb_lp-zjG4FB-79" vertex="1">
          <mxGeometry y="60" width="300" height="30" as="geometry" />
        </mxCell>
        <mxCell id="UZfXPwGcjb_lp-zjG4FB-82" value="hyperlink = &quot;https://elearning.fudan.edu.cn/courses&quot;" style="text;strokeColor=none;fillColor=none;align=left;verticalAlign=middle;spacingLeft=4;spacingRight=4;overflow=hidden;points=[[0,0.5],[1,0.5]];portConstraint=eastwest;rotatable=0;strokeWidth=1;fontSize=16;whiteSpace=wrap;" parent="UZfXPwGcjb_lp-zjG4FB-79" vertex="1">
          <mxGeometry y="90" width="300" height="50" as="geometry" />
        </mxCell>
        <mxCell id="UZfXPwGcjb_lp-zjG4FB-83" value="item2" style="swimlane;fontStyle=0;childLayout=stackLayout;horizontal=1;startSize=30;horizontalStack=0;resizeParent=1;resizeParentMax=0;resizeLast=0;collapsible=1;marginBottom=0;strokeColor=#b85450;strokeWidth=1;fontSize=16;fillColor=#f8cecc;" parent="UZfXPwGcjb_lp-zjG4FB-52" vertex="1">
          <mxGeometry x="820" y="290" width="140" height="60" as="geometry" />
        </mxCell>
        <mxCell id="UZfXPwGcjb_lp-zjG4FB-84" value="title = &quot;课程&quot;" style="text;strokeColor=none;fillColor=none;align=left;verticalAlign=middle;spacingLeft=4;spacingRight=4;overflow=hidden;points=[[0,0.5],[1,0.5]];portConstraint=eastwest;rotatable=0;strokeWidth=1;fontSize=16;" parent="UZfXPwGcjb_lp-zjG4FB-83" vertex="1">
          <mxGeometry y="30" width="140" height="30" as="geometry" />
        </mxCell>
        <mxCell id="UZfXPwGcjb_lp-zjG4FB-87" style="edgeStyle=orthogonalEdgeStyle;rounded=0;orthogonalLoop=1;jettySize=auto;html=1;dashed=1;fontFamily=Helvetica;fontSize=16;fontColor=#1A1A1A;" parent="UZfXPwGcjb_lp-zjG4FB-52" source="UZfXPwGcjb_lp-zjG4FB-65" target="UZfXPwGcjb_lp-zjG4FB-79" edge="1">
          <mxGeometry relative="1" as="geometry" />
        </mxCell>
        <mxCell id="UZfXPwGcjb_lp-zjG4FB-90" value="update" style="text;html=1;strokeColor=none;fillColor=none;align=center;verticalAlign=middle;whiteSpace=wrap;rounded=0;shadow=0;labelBackgroundColor=none;strokeWidth=1;fontFamily=Helvetica;fontSize=16;fontColor=#1A1A1A;" parent="UZfXPwGcjb_lp-zjG4FB-52" vertex="1">
          <mxGeometry x="720" y="290" width="60" height="30" as="geometry" />
        </mxCell>
        <mxCell id="UZfXPwGcjb_lp-zjG4FB-91" style="edgeStyle=orthogonalEdgeStyle;rounded=0;orthogonalLoop=1;jettySize=auto;html=1;fontFamily=Helvetica;fontSize=16;fontColor=#1A1A1A;" parent="1" source="UZfXPwGcjb_lp-zjG4FB-83" edge="1">
          <mxGeometry relative="1" as="geometry">
            <mxPoint x="-170" y="3590" as="targetPoint" />
            <Array as="points">
              <mxPoint x="560" y="3700" />
              <mxPoint x="-170" y="3700" />
            </Array>
          </mxGeometry>
        </mxCell>
        <mxCell id="UZfXPwGcjb_lp-zjG4FB-100" style="edgeStyle=orthogonalEdgeStyle;rounded=0;orthogonalLoop=1;jettySize=auto;html=1;entryX=0;entryY=0.5;entryDx=0;entryDy=0;fontFamily=Helvetica;fontSize=16;fontColor=#1A1A1A;" parent="1" source="UZfXPwGcjb_lp-zjG4FB-94" target="UZfXPwGcjb_lp-zjG4FB-99" edge="1">
          <mxGeometry relative="1" as="geometry" />
        </mxCell>
        <mxCell id="UZfXPwGcjb_lp-zjG4FB-94" value="测试用例" style="swimlane;fontStyle=0;childLayout=stackLayout;horizontal=1;startSize=30;horizontalStack=0;resizeParent=1;resizeParentMax=0;resizeLast=0;collapsible=1;marginBottom=0;shadow=0;labelBackgroundColor=none;strokeColor=default;strokeWidth=1;fontFamily=Helvetica;fontSize=16;fontColor=#1A1A1A;" parent="1" vertex="1">
          <mxGeometry x="-530" y="3920" width="590" height="230" as="geometry" />
        </mxCell>
        <mxCell id="UZfXPwGcjb_lp-zjG4FB-95" value="test_01: addCommand(new String[]{&quot;&quot;})" style="text;strokeColor=none;fillColor=none;align=left;verticalAlign=middle;spacingLeft=4;spacingRight=4;overflow=hidden;points=[[0,0.5],[1,0.5]];portConstraint=eastwest;rotatable=0;shadow=0;labelBackgroundColor=none;strokeWidth=1;fontFamily=Helvetica;fontSize=16;fontColor=#1A1A1A;" parent="UZfXPwGcjb_lp-zjG4FB-94" vertex="1">
          <mxGeometry y="30" width="590" height="40" as="geometry" />
        </mxCell>
        <mxCell id="UZfXPwGcjb_lp-zjG4FB-96" value="test_02: addCommand(new String[]{&quot;add-title &quot;, &quot;课程&quot;})" style="text;strokeColor=none;fillColor=none;align=left;verticalAlign=middle;spacingLeft=4;spacingRight=4;overflow=hidden;points=[[0,0.5],[1,0.5]];portConstraint=eastwest;rotatable=0;shadow=0;labelBackgroundColor=none;strokeWidth=1;fontFamily=Helvetica;fontSize=16;fontColor=#1A1A1A;" parent="UZfXPwGcjb_lp-zjG4FB-94" vertex="1">
          <mxGeometry y="70" width="590" height="40" as="geometry" />
        </mxCell>
        <mxCell id="UZfXPwGcjb_lp-zjG4FB-97" value="test_03: addCommand(new String[]{&quot;add-title &quot;,&quot;函数式&quot;,&quot;at&quot;,&quot;参考资料&quot;})" style="text;strokeColor=none;fillColor=none;align=left;verticalAlign=middle;spacingLeft=4;spacingRight=4;overflow=hidden;points=[[0,0.5],[1,0.5]];portConstraint=eastwest;rotatable=0;shadow=0;labelBackgroundColor=none;strokeWidth=1;fontFamily=Helvetica;fontSize=16;fontColor=#1A1A1A;" parent="UZfXPwGcjb_lp-zjG4FB-94" vertex="1">
          <mxGeometry y="110" width="590" height="40" as="geometry" />
        </mxCell>
        <mxCell id="UZfXPwGcjb_lp-zjG4FB-98" value="test_04: addCommand(new String[]{&quot;add-bookmark &quot;, &quot;elearning&quot;, &quot;https://elearning.fudan.edu.cn/courses&quot;, &quot;at&quot;, &quot;课程&quot;})" style="text;strokeColor=none;fillColor=none;align=left;verticalAlign=middle;spacingLeft=4;spacingRight=4;overflow=hidden;points=[[0,0.5],[1,0.5]];portConstraint=eastwest;rotatable=0;shadow=0;labelBackgroundColor=none;strokeWidth=1;fontFamily=Helvetica;fontSize=16;fontColor=#1A1A1A;whiteSpace=wrap;" parent="UZfXPwGcjb_lp-zjG4FB-94" vertex="1">
          <mxGeometry y="150" width="590" height="80" as="geometry" />
        </mxCell>
        <mxCell id="UZfXPwGcjb_lp-zjG4FB-99" value="addCommand" style="rounded=1;whiteSpace=wrap;html=1;shadow=0;labelBackgroundColor=none;strokeColor=default;strokeWidth=1;fontFamily=Helvetica;fontSize=16;fontColor=#1A1A1A;fontStyle=1" parent="1" vertex="1">
          <mxGeometry x="240" y="4015" width="230" height="40" as="geometry" />
        </mxCell>
        <mxCell id="UZfXPwGcjb_lp-zjG4FB-101" style="edgeStyle=orthogonalEdgeStyle;rounded=0;orthogonalLoop=1;jettySize=auto;html=1;entryX=0;entryY=0.5;entryDx=0;entryDy=0;fontFamily=Helvetica;fontSize=16;fontColor=#1A1A1A;" parent="1" source="UZfXPwGcjb_lp-zjG4FB-102" target="UZfXPwGcjb_lp-zjG4FB-107" edge="1">
          <mxGeometry relative="1" as="geometry" />
        </mxCell>
        <mxCell id="UZfXPwGcjb_lp-zjG4FB-102" value="测试用例" style="swimlane;fontStyle=0;childLayout=stackLayout;horizontal=1;startSize=30;horizontalStack=0;resizeParent=1;resizeParentMax=0;resizeLast=0;collapsible=1;marginBottom=0;shadow=0;labelBackgroundColor=none;strokeColor=default;strokeWidth=1;fontFamily=Helvetica;fontSize=16;fontColor=#1A1A1A;" parent="1" vertex="1">
          <mxGeometry x="-530" y="4210" width="590" height="190" as="geometry" />
        </mxCell>
        <mxCell id="UZfXPwGcjb_lp-zjG4FB-103" value="test_01: deleteCommand(new String[]{&quot;&quot;})" style="text;strokeColor=none;fillColor=none;align=left;verticalAlign=middle;spacingLeft=4;spacingRight=4;overflow=hidden;points=[[0,0.5],[1,0.5]];portConstraint=eastwest;rotatable=0;shadow=0;labelBackgroundColor=none;strokeWidth=1;fontFamily=Helvetica;fontSize=16;fontColor=#1A1A1A;" parent="UZfXPwGcjb_lp-zjG4FB-102" vertex="1">
          <mxGeometry y="30" width="590" height="40" as="geometry" />
        </mxCell>
        <mxCell id="UZfXPwGcjb_lp-zjG4FB-104" value="test_02: deleteCommand(new String[]{&quot;delete-title &quot;, &quot;课程&quot;})" style="text;strokeColor=none;fillColor=none;align=left;verticalAlign=middle;spacingLeft=4;spacingRight=4;overflow=hidden;points=[[0,0.5],[1,0.5]];portConstraint=eastwest;rotatable=0;shadow=0;labelBackgroundColor=none;strokeWidth=1;fontFamily=Helvetica;fontSize=16;fontColor=#1A1A1A;" parent="UZfXPwGcjb_lp-zjG4FB-102" vertex="1">
          <mxGeometry y="70" width="590" height="40" as="geometry" />
        </mxCell>
        <mxCell id="UZfXPwGcjb_lp-zjG4FB-105" value="test_03: deleteCommand(new String[]{&quot;delete-title &quot;, &quot;参考资料&quot;})" style="text;strokeColor=none;fillColor=none;align=left;verticalAlign=middle;spacingLeft=4;spacingRight=4;overflow=hidden;points=[[0,0.5],[1,0.5]];portConstraint=eastwest;rotatable=0;shadow=0;labelBackgroundColor=none;strokeWidth=1;fontFamily=Helvetica;fontSize=16;fontColor=#1A1A1A;" parent="UZfXPwGcjb_lp-zjG4FB-102" vertex="1">
          <mxGeometry y="110" width="590" height="40" as="geometry" />
        </mxCell>
        <mxCell id="UZfXPwGcjb_lp-zjG4FB-106" value="test_04: deleteCommand(new String[]{&quot;delete-bookmark &quot;, &quot;elearning&quot;})" style="text;strokeColor=none;fillColor=none;align=left;verticalAlign=middle;spacingLeft=4;spacingRight=4;overflow=hidden;points=[[0,0.5],[1,0.5]];portConstraint=eastwest;rotatable=0;shadow=0;labelBackgroundColor=none;strokeWidth=1;fontFamily=Helvetica;fontSize=16;fontColor=#1A1A1A;whiteSpace=wrap;" parent="UZfXPwGcjb_lp-zjG4FB-102" vertex="1">
          <mxGeometry y="150" width="590" height="40" as="geometry" />
        </mxCell>
        <mxCell id="UZfXPwGcjb_lp-zjG4FB-107" value="deleteCommand" style="rounded=1;whiteSpace=wrap;html=1;shadow=0;labelBackgroundColor=none;strokeColor=default;strokeWidth=1;fontFamily=Helvetica;fontSize=16;fontColor=#1A1A1A;fontStyle=1" parent="1" vertex="1">
          <mxGeometry x="260" y="4285" width="230" height="40" as="geometry" />
        </mxCell>
        <mxCell id="nI3ITrf-TJLzajBkWIuT-16" value="Horizontal Tree Layout" style="swimlane;startSize=20;horizontal=0;childLayout=treeLayout;horizontalTree=1;resizable=0;containerType=tree;fontSize=14;" parent="1" vertex="1">
          <mxGeometry x="35" y="4762" width="310" height="160" as="geometry" />
        </mxCell>
        <mxCell id="nI3ITrf-TJLzajBkWIuT-17" value="Root" style="whiteSpace=wrap;html=1;fontSize=14;" parent="nI3ITrf-TJLzajBkWIuT-16" vertex="1">
          <mxGeometry x="40" y="60" width="100" height="40" as="geometry" />
        </mxCell>
        <mxCell id="nI3ITrf-TJLzajBkWIuT-18" value="Child 1" style="whiteSpace=wrap;html=1;fontSize=14;" parent="nI3ITrf-TJLzajBkWIuT-16" vertex="1">
          <mxGeometry x="190" y="20" width="100" height="40" as="geometry" />
        </mxCell>
        <mxCell id="nI3ITrf-TJLzajBkWIuT-19" value="" style="edgeStyle=elbowEdgeStyle;elbow=horizontal;html=1;rounded=0;dashed=1;fontSize=14;" parent="nI3ITrf-TJLzajBkWIuT-16" source="nI3ITrf-TJLzajBkWIuT-17" target="nI3ITrf-TJLzajBkWIuT-18" edge="1">
          <mxGeometry relative="1" as="geometry" />
        </mxCell>
        <mxCell id="nI3ITrf-TJLzajBkWIuT-20" value="Child 2" style="whiteSpace=wrap;html=1;fontSize=14;" parent="nI3ITrf-TJLzajBkWIuT-16" vertex="1">
          <mxGeometry x="190" y="100" width="100" height="40" as="geometry" />
        </mxCell>
        <mxCell id="nI3ITrf-TJLzajBkWIuT-21" value="" style="edgeStyle=elbowEdgeStyle;elbow=horizontal;html=1;rounded=0;dashed=1;fontSize=14;" parent="nI3ITrf-TJLzajBkWIuT-16" source="nI3ITrf-TJLzajBkWIuT-17" target="nI3ITrf-TJLzajBkWIuT-20" edge="1">
          <mxGeometry relative="1" as="geometry" />
        </mxCell>
        <mxCell id="nI3ITrf-TJLzajBkWIuT-79" value="程序执行流程图" style="swimlane;childLayout=stackLayout;resizeParent=1;resizeParentMax=0;startSize=20;horizontal=0;horizontalStack=1;rounded=0;labelBorderColor=none;fontSize=14;" parent="1" vertex="1">
          <mxGeometry x="225" y="6535" width="1531" height="720" as="geometry" />
        </mxCell>
        <mxCell id="nI3ITrf-TJLzajBkWIuT-141" style="rounded=0;orthogonalLoop=1;jettySize=auto;html=1;fontSize=14;exitX=1;exitY=0.5;exitDx=0;exitDy=0;edgeStyle=orthogonalEdgeStyle;" parent="nI3ITrf-TJLzajBkWIuT-79" source="nI3ITrf-TJLzajBkWIuT-90" target="nI3ITrf-TJLzajBkWIuT-140" edge="1">
          <mxGeometry relative="1" as="geometry" />
        </mxCell>
        <mxCell id="nI3ITrf-TJLzajBkWIuT-168" style="rounded=0;orthogonalLoop=1;jettySize=auto;html=1;fontSize=16;entryX=0;entryY=0.25;entryDx=0;entryDy=0;" parent="nI3ITrf-TJLzajBkWIuT-79" source="nI3ITrf-TJLzajBkWIuT-136" target="nI3ITrf-TJLzajBkWIuT-180" edge="1">
          <mxGeometry relative="1" as="geometry">
            <mxPoint x="1059" y="234.4999999999991" as="targetPoint" />
          </mxGeometry>
        </mxCell>
        <mxCell id="nI3ITrf-TJLzajBkWIuT-169" value="⑤" style="edgeLabel;html=1;align=center;verticalAlign=middle;resizable=0;points=[];fontSize=16;" parent="nI3ITrf-TJLzajBkWIuT-168" vertex="1" connectable="0">
          <mxGeometry x="-0.2759" y="1" relative="1" as="geometry">
            <mxPoint as="offset" />
          </mxGeometry>
        </mxCell>
        <mxCell id="nI3ITrf-TJLzajBkWIuT-201" style="edgeStyle=orthogonalEdgeStyle;rounded=0;orthogonalLoop=1;jettySize=auto;html=1;fontSize=18;" parent="nI3ITrf-TJLzajBkWIuT-79" source="nI3ITrf-TJLzajBkWIuT-120" target="nI3ITrf-TJLzajBkWIuT-200" edge="1">
          <mxGeometry relative="1" as="geometry" />
        </mxCell>
        <mxCell id="nI3ITrf-TJLzajBkWIuT-202" value="&lt;font style=&quot;font-size: 14px;&quot;&gt;④&lt;/font&gt;" style="edgeLabel;html=1;align=center;verticalAlign=middle;resizable=0;points=[];fontSize=18;" parent="nI3ITrf-TJLzajBkWIuT-201" vertex="1" connectable="0">
          <mxGeometry x="-0.4549" relative="1" as="geometry">
            <mxPoint as="offset" />
          </mxGeometry>
        </mxCell>
        <mxCell id="nI3ITrf-TJLzajBkWIuT-230" style="edgeStyle=orthogonalEdgeStyle;rounded=0;orthogonalLoop=1;jettySize=auto;html=1;entryX=0;entryY=0.75;entryDx=0;entryDy=0;fontSize=14;" parent="nI3ITrf-TJLzajBkWIuT-79" source="nI3ITrf-TJLzajBkWIuT-117" target="nI3ITrf-TJLzajBkWIuT-180" edge="1">
          <mxGeometry relative="1" as="geometry">
            <Array as="points">
              <mxPoint x="985" y="419" />
              <mxPoint x="985" y="365" />
            </Array>
          </mxGeometry>
        </mxCell>
        <mxCell id="nI3ITrf-TJLzajBkWIuT-232" value="④" style="edgeLabel;html=1;align=center;verticalAlign=middle;resizable=0;points=[];fontSize=14;" parent="nI3ITrf-TJLzajBkWIuT-230" vertex="1" connectable="0">
          <mxGeometry x="-0.8185" y="-1" relative="1" as="geometry">
            <mxPoint as="offset" />
          </mxGeometry>
        </mxCell>
        <mxCell id="nI3ITrf-TJLzajBkWIuT-80" value="解析指令" style="swimlane;startSize=20;rounded=0;labelBorderColor=none;fontSize=14;swimlaneFillColor=none;" parent="nI3ITrf-TJLzajBkWIuT-79" vertex="1">
          <mxGeometry x="20" width="267" height="720" as="geometry" />
        </mxCell>
        <mxCell id="nI3ITrf-TJLzajBkWIuT-93" style="edgeStyle=orthogonalEdgeStyle;rounded=0;orthogonalLoop=1;jettySize=auto;html=1;entryX=0.5;entryY=1;entryDx=0;entryDy=0;fontSize=14;" parent="nI3ITrf-TJLzajBkWIuT-80" source="nI3ITrf-TJLzajBkWIuT-89" target="nI3ITrf-TJLzajBkWIuT-90" edge="1">
          <mxGeometry relative="1" as="geometry" />
        </mxCell>
        <mxCell id="nI3ITrf-TJLzajBkWIuT-155" value="②" style="edgeLabel;html=1;align=center;verticalAlign=middle;resizable=0;points=[];fontSize=14;" parent="nI3ITrf-TJLzajBkWIuT-93" vertex="1" connectable="0">
          <mxGeometry x="0.3885" y="-1" relative="1" as="geometry">
            <mxPoint as="offset" />
          </mxGeometry>
        </mxCell>
        <mxCell id="nI3ITrf-TJLzajBkWIuT-89" value="commandParse" style="rounded=0;whiteSpace=wrap;html=1;labelBorderColor=none;fontSize=14;aspect=fixed;" parent="nI3ITrf-TJLzajBkWIuT-80" vertex="1">
          <mxGeometry x="32" y="349.5" width="140" height="70" as="geometry" />
        </mxCell>
        <mxCell id="nI3ITrf-TJLzajBkWIuT-90" value="commandManager" style="rounded=0;whiteSpace=wrap;html=1;fontSize=14;aspect=fixed;" parent="nI3ITrf-TJLzajBkWIuT-80" vertex="1">
          <mxGeometry x="32" y="119.5" width="140" height="70" as="geometry" />
        </mxCell>
        <mxCell id="nI3ITrf-TJLzajBkWIuT-92" style="edgeStyle=orthogonalEdgeStyle;rounded=0;orthogonalLoop=1;jettySize=auto;html=1;entryX=0.5;entryY=1;entryDx=0;entryDy=0;fontSize=14;" parent="nI3ITrf-TJLzajBkWIuT-80" source="nI3ITrf-TJLzajBkWIuT-91" target="nI3ITrf-TJLzajBkWIuT-89" edge="1">
          <mxGeometry relative="1" as="geometry" />
        </mxCell>
        <mxCell id="nI3ITrf-TJLzajBkWIuT-154" value="①" style="edgeLabel;html=1;align=center;verticalAlign=middle;resizable=0;points=[];fontSize=14;" parent="nI3ITrf-TJLzajBkWIuT-92" vertex="1" connectable="0">
          <mxGeometry x="0.3456" relative="1" as="geometry">
            <mxPoint as="offset" />
          </mxGeometry>
        </mxCell>
        <mxCell id="nI3ITrf-TJLzajBkWIuT-91" value="input: order" style="rounded=0;whiteSpace=wrap;html=1;labelBorderColor=none;fontSize=14;aspect=fixed;" parent="nI3ITrf-TJLzajBkWIuT-80" vertex="1">
          <mxGeometry x="32" y="571.5" width="140" height="70" as="geometry" />
        </mxCell>
        <mxCell id="nI3ITrf-TJLzajBkWIuT-81" value="命令模块" style="swimlane;startSize=20;rounded=0;labelBorderColor=none;fontSize=14;" parent="nI3ITrf-TJLzajBkWIuT-79" vertex="1">
          <mxGeometry x="287" width="733" height="720" as="geometry" />
        </mxCell>
        <mxCell id="nI3ITrf-TJLzajBkWIuT-243" style="edgeStyle=orthogonalEdgeStyle;rounded=0;jumpStyle=arc;orthogonalLoop=1;jettySize=auto;html=1;fontSize=14;" parent="nI3ITrf-TJLzajBkWIuT-81" source="nI3ITrf-TJLzajBkWIuT-241" target="nI3ITrf-TJLzajBkWIuT-136" edge="1">
          <mxGeometry relative="1" as="geometry" />
        </mxCell>
        <mxCell id="nI3ITrf-TJLzajBkWIuT-246" value="④" style="edgeLabel;html=1;align=center;verticalAlign=middle;resizable=0;points=[];fontSize=14;" parent="nI3ITrf-TJLzajBkWIuT-243" vertex="1" connectable="0">
          <mxGeometry x="-0.2611" y="2" relative="1" as="geometry">
            <mxPoint as="offset" />
          </mxGeometry>
        </mxCell>
        <mxCell id="nI3ITrf-TJLzajBkWIuT-117" value="bookmarkCommand" style="rounded=0;whiteSpace=wrap;html=1;fontSize=14;aspect=fixed;" parent="nI3ITrf-TJLzajBkWIuT-81" vertex="1">
          <mxGeometry x="252.5" y="384" width="140" height="70" as="geometry" />
        </mxCell>
        <mxCell id="nI3ITrf-TJLzajBkWIuT-120" value="openCommand" style="rounded=0;whiteSpace=wrap;html=1;fontSize=14;aspect=fixed;" parent="nI3ITrf-TJLzajBkWIuT-81" vertex="1">
          <mxGeometry x="252.5" y="119.5" width="140" height="70" as="geometry" />
        </mxCell>
        <mxCell id="nI3ITrf-TJLzajBkWIuT-144" style="edgeStyle=orthogonalEdgeStyle;rounded=0;orthogonalLoop=1;jettySize=auto;html=1;entryX=0;entryY=0.5;entryDx=0;entryDy=0;dashed=1;fontSize=14;" parent="nI3ITrf-TJLzajBkWIuT-81" source="nI3ITrf-TJLzajBkWIuT-140" target="nI3ITrf-TJLzajBkWIuT-120" edge="1">
          <mxGeometry relative="1" as="geometry" />
        </mxCell>
        <mxCell id="nI3ITrf-TJLzajBkWIuT-233" style="edgeStyle=orthogonalEdgeStyle;rounded=0;orthogonalLoop=1;jettySize=auto;html=1;entryX=0;entryY=0.5;entryDx=0;entryDy=0;fontSize=14;dashed=1;" parent="nI3ITrf-TJLzajBkWIuT-81" source="nI3ITrf-TJLzajBkWIuT-140" target="nI3ITrf-TJLzajBkWIuT-117" edge="1">
          <mxGeometry relative="1" as="geometry" />
        </mxCell>
        <mxCell id="nI3ITrf-TJLzajBkWIuT-239" style="edgeStyle=orthogonalEdgeStyle;rounded=0;jumpStyle=arc;orthogonalLoop=1;jettySize=auto;html=1;entryX=0;entryY=0.5;entryDx=0;entryDy=0;fontSize=14;dashed=1;" parent="nI3ITrf-TJLzajBkWIuT-81" source="nI3ITrf-TJLzajBkWIuT-140" target="nI3ITrf-TJLzajBkWIuT-238" edge="1">
          <mxGeometry relative="1" as="geometry" />
        </mxCell>
        <mxCell id="nI3ITrf-TJLzajBkWIuT-242" style="edgeStyle=orthogonalEdgeStyle;rounded=0;jumpStyle=arc;orthogonalLoop=1;jettySize=auto;html=1;entryX=0;entryY=0.5;entryDx=0;entryDy=0;dashed=1;fontSize=14;" parent="nI3ITrf-TJLzajBkWIuT-81" source="nI3ITrf-TJLzajBkWIuT-140" target="nI3ITrf-TJLzajBkWIuT-241" edge="1">
          <mxGeometry relative="1" as="geometry" />
        </mxCell>
        <mxCell id="nI3ITrf-TJLzajBkWIuT-140" value="Command" style="rounded=0;whiteSpace=wrap;html=1;fontSize=14;aspect=fixed;" parent="nI3ITrf-TJLzajBkWIuT-81" vertex="1">
          <mxGeometry x="23" y="119.5" width="140" height="70" as="geometry" />
        </mxCell>
        <mxCell id="nI3ITrf-TJLzajBkWIuT-136" value="historyCommand" style="swimlane;fontStyle=0;childLayout=stackLayout;horizontal=1;startSize=26;fillColor=none;horizontalStack=0;resizeParent=1;resizeParentMax=0;resizeLast=0;collapsible=1;marginBottom=0;html=1;rounded=0;labelBorderColor=none;fontSize=14;" parent="nI3ITrf-TJLzajBkWIuT-81" vertex="1">
          <mxGeometry x="489" y="235" width="168" height="104" as="geometry" />
        </mxCell>
        <mxCell id="nI3ITrf-TJLzajBkWIuT-137" value="addCommand" style="text;strokeColor=none;fillColor=none;align=left;verticalAlign=top;spacingLeft=4;spacingRight=4;overflow=hidden;rotatable=0;points=[[0,0.5],[1,0.5]];portConstraint=eastwest;whiteSpace=wrap;html=1;rounded=0;labelBorderColor=none;fontSize=14;" parent="nI3ITrf-TJLzajBkWIuT-136" vertex="1">
          <mxGeometry y="26" width="168" height="26" as="geometry" />
        </mxCell>
        <mxCell id="nI3ITrf-TJLzajBkWIuT-138" value="deleteCommand" style="text;strokeColor=none;fillColor=none;align=left;verticalAlign=top;spacingLeft=4;spacingRight=4;overflow=hidden;rotatable=0;points=[[0,0.5],[1,0.5]];portConstraint=eastwest;whiteSpace=wrap;html=1;rounded=0;labelBorderColor=none;fontSize=14;" parent="nI3ITrf-TJLzajBkWIuT-136" vertex="1">
          <mxGeometry y="52" width="168" height="26" as="geometry" />
        </mxCell>
        <mxCell id="nI3ITrf-TJLzajBkWIuT-139" value="........" style="text;strokeColor=none;fillColor=none;align=left;verticalAlign=top;spacingLeft=4;spacingRight=4;overflow=hidden;rotatable=0;points=[[0,0.5],[1,0.5]];portConstraint=eastwest;whiteSpace=wrap;html=1;rounded=0;labelBorderColor=none;fontSize=14;" parent="nI3ITrf-TJLzajBkWIuT-136" vertex="1">
          <mxGeometry y="78" width="168" height="26" as="geometry" />
        </mxCell>
        <mxCell id="nI3ITrf-TJLzajBkWIuT-250" style="edgeStyle=orthogonalEdgeStyle;rounded=0;jumpStyle=arc;orthogonalLoop=1;jettySize=auto;html=1;fontSize=14;" parent="nI3ITrf-TJLzajBkWIuT-81" source="nI3ITrf-TJLzajBkWIuT-229" target="nI3ITrf-TJLzajBkWIuT-136" edge="1">
          <mxGeometry relative="1" as="geometry" />
        </mxCell>
        <mxCell id="nI3ITrf-TJLzajBkWIuT-251" value="④" style="edgeLabel;html=1;align=center;verticalAlign=middle;resizable=0;points=[];fontSize=14;" parent="nI3ITrf-TJLzajBkWIuT-250" vertex="1" connectable="0">
          <mxGeometry x="-0.5129" relative="1" as="geometry">
            <mxPoint as="offset" />
          </mxGeometry>
        </mxCell>
        <mxCell id="nI3ITrf-TJLzajBkWIuT-229" value="undo / redo" style="rounded=0;whiteSpace=wrap;html=1;fontSize=14;aspect=fixed;" parent="nI3ITrf-TJLzajBkWIuT-81" vertex="1">
          <mxGeometry x="23" y="31" width="140" height="70" as="geometry" />
        </mxCell>
        <mxCell id="nI3ITrf-TJLzajBkWIuT-244" value="" style="group" parent="nI3ITrf-TJLzajBkWIuT-81" vertex="1" connectable="0">
          <mxGeometry x="249" y="208" width="147" height="158" as="geometry" />
        </mxCell>
        <mxCell id="nI3ITrf-TJLzajBkWIuT-241" value="" style="rounded=0;whiteSpace=wrap;html=1;dashed=1;labelBorderColor=none;strokeColor=default;fontSize=14;fillColor=default;" parent="nI3ITrf-TJLzajBkWIuT-244" vertex="1">
          <mxGeometry width="147" height="158" as="geometry" />
        </mxCell>
        <mxCell id="nI3ITrf-TJLzajBkWIuT-116" value="addCommand" style="rounded=0;whiteSpace=wrap;html=1;fontSize=14;aspect=fixed;" parent="nI3ITrf-TJLzajBkWIuT-244" vertex="1">
          <mxGeometry x="3.5" y="5.5" width="140" height="70" as="geometry" />
        </mxCell>
        <mxCell id="nI3ITrf-TJLzajBkWIuT-119" value="deleteCommand" style="rounded=0;whiteSpace=wrap;html=1;fontSize=14;aspect=fixed;" parent="nI3ITrf-TJLzajBkWIuT-244" vertex="1">
          <mxGeometry x="3.5" y="83.5" width="140" height="70" as="geometry" />
        </mxCell>
        <mxCell id="nI3ITrf-TJLzajBkWIuT-245" value="" style="group" parent="nI3ITrf-TJLzajBkWIuT-81" vertex="1" connectable="0">
          <mxGeometry x="249" y="477" width="147" height="233" as="geometry" />
        </mxCell>
        <mxCell id="nI3ITrf-TJLzajBkWIuT-238" value="" style="rounded=0;whiteSpace=wrap;html=1;dashed=1;labelBorderColor=none;strokeColor=default;fontSize=14;fillColor=default;" parent="nI3ITrf-TJLzajBkWIuT-245" vertex="1">
          <mxGeometry width="147" height="233" as="geometry" />
        </mxCell>
        <mxCell id="nI3ITrf-TJLzajBkWIuT-121" value="readCommand" style="rounded=0;whiteSpace=wrap;html=1;fontSize=14;aspect=fixed;" parent="nI3ITrf-TJLzajBkWIuT-245" vertex="1">
          <mxGeometry x="3.5" y="2.5" width="140" height="70" as="geometry" />
        </mxCell>
        <mxCell id="nI3ITrf-TJLzajBkWIuT-122" value="saveCommand" style="rounded=0;whiteSpace=wrap;html=1;fontSize=14;aspect=fixed;" parent="nI3ITrf-TJLzajBkWIuT-245" vertex="1">
          <mxGeometry x="3.5" y="79.5" width="140" height="70" as="geometry" />
        </mxCell>
        <mxCell id="nI3ITrf-TJLzajBkWIuT-123" value="vision" style="rounded=0;whiteSpace=wrap;html=1;fontSize=14;aspect=fixed;" parent="nI3ITrf-TJLzajBkWIuT-245" vertex="1">
          <mxGeometry x="3.5" y="156.5" width="140" height="70" as="geometry" />
        </mxCell>
        <mxCell id="nI3ITrf-TJLzajBkWIuT-249" style="edgeStyle=orthogonalEdgeStyle;rounded=0;jumpStyle=arc;orthogonalLoop=1;jettySize=auto;html=1;fontSize=14;" parent="nI3ITrf-TJLzajBkWIuT-81" source="nI3ITrf-TJLzajBkWIuT-238" target="nI3ITrf-TJLzajBkWIuT-136" edge="1">
          <mxGeometry relative="1" as="geometry" />
        </mxCell>
        <mxCell id="nI3ITrf-TJLzajBkWIuT-253" value="④" style="edgeLabel;html=1;align=center;verticalAlign=middle;resizable=0;points=[];fontSize=14;" parent="nI3ITrf-TJLzajBkWIuT-249" vertex="1" connectable="0">
          <mxGeometry x="0.2717" y="-1" relative="1" as="geometry">
            <mxPoint as="offset" />
          </mxGeometry>
        </mxCell>
        <mxCell id="nI3ITrf-TJLzajBkWIuT-82" value="数据结构" style="swimlane;startSize=20;rounded=0;labelBorderColor=none;fontSize=14;" parent="nI3ITrf-TJLzajBkWIuT-79" vertex="1">
          <mxGeometry x="1020" width="511" height="720" as="geometry" />
        </mxCell>
        <mxCell id="nI3ITrf-TJLzajBkWIuT-180" value="Label" style="swimlane;childLayout=stackLayout;resizeParent=1;resizeParentMax=0;startSize=20;horizontal=0;horizontalStack=1;rounded=0;labelBorderColor=none;fontSize=14;" parent="nI3ITrf-TJLzajBkWIuT-82" vertex="1">
          <mxGeometry x="41" y="250" width="389" height="153.00000000000026" as="geometry" />
        </mxCell>
        <mxCell id="nI3ITrf-TJLzajBkWIuT-181" value="Item1" style="swimlane;startSize=20;rounded=0;labelBorderColor=none;fontSize=14;" parent="nI3ITrf-TJLzajBkWIuT-180" vertex="1">
          <mxGeometry x="20" width="123" height="153.00000000000026" as="geometry" />
        </mxCell>
        <mxCell id="nI3ITrf-TJLzajBkWIuT-184" value="title" style="text;strokeColor=none;fillColor=none;align=left;verticalAlign=middle;spacingLeft=4;spacingRight=4;overflow=hidden;points=[[0,0.5],[1,0.5]];portConstraint=eastwest;rotatable=0;whiteSpace=wrap;html=1;rounded=0;labelBorderColor=none;fontSize=14;aspect=fixed;" parent="nI3ITrf-TJLzajBkWIuT-181" vertex="1">
          <mxGeometry y="22" width="123" height="26.03" as="geometry" />
        </mxCell>
        <mxCell id="nI3ITrf-TJLzajBkWIuT-185" value="bookmarkName" style="text;strokeColor=none;fillColor=none;align=left;verticalAlign=middle;spacingLeft=4;spacingRight=4;overflow=hidden;points=[[0,0.5],[1,0.5]];portConstraint=eastwest;rotatable=0;whiteSpace=wrap;html=1;rounded=0;labelBorderColor=none;fontSize=14;aspect=fixed;" parent="nI3ITrf-TJLzajBkWIuT-181" vertex="1">
          <mxGeometry y="48.029999999999745" width="123" height="26.03" as="geometry" />
        </mxCell>
        <mxCell id="nI3ITrf-TJLzajBkWIuT-186" value="hyperlink" style="text;strokeColor=none;fillColor=none;align=left;verticalAlign=middle;spacingLeft=4;spacingRight=4;overflow=hidden;points=[[0,0.5],[1,0.5]];portConstraint=eastwest;rotatable=0;whiteSpace=wrap;html=1;rounded=0;labelBorderColor=none;fontSize=14;aspect=fixed;" parent="nI3ITrf-TJLzajBkWIuT-181" vertex="1">
          <mxGeometry y="74.0600000000004" width="123" height="26.03" as="geometry" />
        </mxCell>
        <mxCell id="nI3ITrf-TJLzajBkWIuT-187" value="visited" style="text;strokeColor=none;fillColor=none;align=left;verticalAlign=middle;spacingLeft=4;spacingRight=4;overflow=hidden;points=[[0,0.5],[1,0.5]];portConstraint=eastwest;rotatable=0;whiteSpace=wrap;html=1;rounded=0;labelBorderColor=none;fontSize=14;aspect=fixed;" parent="nI3ITrf-TJLzajBkWIuT-181" vertex="1">
          <mxGeometry y="100.09000000000015" width="123" height="26.03" as="geometry" />
        </mxCell>
        <mxCell id="nI3ITrf-TJLzajBkWIuT-211" value="sons" style="text;strokeColor=none;fillColor=none;align=left;verticalAlign=middle;spacingLeft=4;spacingRight=4;overflow=hidden;points=[[0,0.5],[1,0.5]];portConstraint=eastwest;rotatable=0;whiteSpace=wrap;html=1;rounded=0;labelBorderColor=none;fontSize=14;aspect=fixed;" parent="nI3ITrf-TJLzajBkWIuT-181" vertex="1">
          <mxGeometry y="126.11999999999989" width="123" height="26.03" as="geometry" />
        </mxCell>
        <mxCell id="nI3ITrf-TJLzajBkWIuT-182" value="Item2" style="swimlane;startSize=20;rounded=0;labelBorderColor=none;fontSize=14;" parent="nI3ITrf-TJLzajBkWIuT-180" vertex="1">
          <mxGeometry x="143" width="123" height="153.00000000000026" as="geometry" />
        </mxCell>
        <mxCell id="nI3ITrf-TJLzajBkWIuT-188" value="title" style="text;strokeColor=none;fillColor=none;align=left;verticalAlign=middle;spacingLeft=4;spacingRight=4;overflow=hidden;points=[[0,0.5],[1,0.5]];portConstraint=eastwest;rotatable=0;whiteSpace=wrap;html=1;rounded=0;labelBorderColor=none;fontSize=14;aspect=fixed;" parent="nI3ITrf-TJLzajBkWIuT-182" vertex="1">
          <mxGeometry y="22" width="123" height="26.03" as="geometry" />
        </mxCell>
        <mxCell id="nI3ITrf-TJLzajBkWIuT-189" value="bookmarkName" style="text;strokeColor=none;fillColor=none;align=left;verticalAlign=middle;spacingLeft=4;spacingRight=4;overflow=hidden;points=[[0,0.5],[1,0.5]];portConstraint=eastwest;rotatable=0;whiteSpace=wrap;html=1;rounded=0;labelBorderColor=none;fontSize=14;aspect=fixed;" parent="nI3ITrf-TJLzajBkWIuT-182" vertex="1">
          <mxGeometry y="48.029999999999745" width="123" height="26.03" as="geometry" />
        </mxCell>
        <mxCell id="nI3ITrf-TJLzajBkWIuT-190" value="hyperlink" style="text;strokeColor=none;fillColor=none;align=left;verticalAlign=middle;spacingLeft=4;spacingRight=4;overflow=hidden;points=[[0,0.5],[1,0.5]];portConstraint=eastwest;rotatable=0;whiteSpace=wrap;html=1;rounded=0;labelBorderColor=none;fontSize=14;aspect=fixed;" parent="nI3ITrf-TJLzajBkWIuT-182" vertex="1">
          <mxGeometry y="74.0600000000004" width="123" height="26.03" as="geometry" />
        </mxCell>
        <mxCell id="nI3ITrf-TJLzajBkWIuT-191" value="sons" style="text;strokeColor=none;fillColor=none;align=left;verticalAlign=middle;spacingLeft=4;spacingRight=4;overflow=hidden;points=[[0,0.5],[1,0.5]];portConstraint=eastwest;rotatable=0;whiteSpace=wrap;html=1;rounded=0;labelBorderColor=none;fontSize=14;aspect=fixed;" parent="nI3ITrf-TJLzajBkWIuT-182" vertex="1">
          <mxGeometry y="126.97000000000014" width="123" height="26.03" as="geometry" />
        </mxCell>
        <mxCell id="nI3ITrf-TJLzajBkWIuT-212" value="visited" style="text;strokeColor=none;fillColor=none;align=left;verticalAlign=middle;spacingLeft=4;spacingRight=4;overflow=hidden;points=[[0,0.5],[1,0.5]];portConstraint=eastwest;rotatable=0;whiteSpace=wrap;html=1;rounded=0;labelBorderColor=none;fontSize=14;aspect=fixed;" parent="nI3ITrf-TJLzajBkWIuT-182" vertex="1">
          <mxGeometry y="100.94000000000051" width="123" height="26.03" as="geometry" />
        </mxCell>
        <mxCell id="nI3ITrf-TJLzajBkWIuT-183" value="Item3" style="swimlane;startSize=20;rounded=0;labelBorderColor=none;fontSize=14;" parent="nI3ITrf-TJLzajBkWIuT-180" vertex="1">
          <mxGeometry x="266" width="123" height="153.00000000000026" as="geometry" />
        </mxCell>
        <mxCell id="nI3ITrf-TJLzajBkWIuT-192" value="title" style="text;strokeColor=none;fillColor=none;align=left;verticalAlign=middle;spacingLeft=4;spacingRight=4;overflow=hidden;points=[[0,0.5],[1,0.5]];portConstraint=eastwest;rotatable=0;whiteSpace=wrap;html=1;rounded=0;labelBorderColor=none;fontSize=14;aspect=fixed;" parent="nI3ITrf-TJLzajBkWIuT-183" vertex="1">
          <mxGeometry y="20" width="123" height="26.03" as="geometry" />
        </mxCell>
        <mxCell id="nI3ITrf-TJLzajBkWIuT-193" value="bookmarkName" style="text;strokeColor=none;fillColor=none;align=left;verticalAlign=middle;spacingLeft=4;spacingRight=4;overflow=hidden;points=[[0,0.5],[1,0.5]];portConstraint=eastwest;rotatable=0;whiteSpace=wrap;html=1;rounded=0;labelBorderColor=none;fontSize=14;aspect=fixed;" parent="nI3ITrf-TJLzajBkWIuT-183" vertex="1">
          <mxGeometry y="46.029999999999745" width="123" height="26.03" as="geometry" />
        </mxCell>
        <mxCell id="nI3ITrf-TJLzajBkWIuT-194" value="hyperlink" style="text;strokeColor=none;fillColor=none;align=left;verticalAlign=middle;spacingLeft=4;spacingRight=4;overflow=hidden;points=[[0,0.5],[1,0.5]];portConstraint=eastwest;rotatable=0;whiteSpace=wrap;html=1;rounded=0;labelBorderColor=none;fontSize=14;aspect=fixed;" parent="nI3ITrf-TJLzajBkWIuT-183" vertex="1">
          <mxGeometry y="72.0600000000004" width="123" height="26.03" as="geometry" />
        </mxCell>
        <mxCell id="nI3ITrf-TJLzajBkWIuT-195" value="visited" style="text;strokeColor=none;fillColor=none;align=left;verticalAlign=middle;spacingLeft=4;spacingRight=4;overflow=hidden;points=[[0,0.5],[1,0.5]];portConstraint=eastwest;rotatable=0;whiteSpace=wrap;html=1;rounded=0;labelBorderColor=none;fontSize=14;aspect=fixed;" parent="nI3ITrf-TJLzajBkWIuT-183" vertex="1">
          <mxGeometry y="98.09000000000015" width="123" height="26.03" as="geometry" />
        </mxCell>
        <mxCell id="nI3ITrf-TJLzajBkWIuT-213" value="sons" style="text;strokeColor=none;fillColor=none;align=left;verticalAlign=middle;spacingLeft=4;spacingRight=4;overflow=hidden;points=[[0,0.5],[1,0.5]];portConstraint=eastwest;rotatable=0;whiteSpace=wrap;html=1;rounded=0;labelBorderColor=none;fontSize=14;aspect=fixed;" parent="nI3ITrf-TJLzajBkWIuT-183" vertex="1">
          <mxGeometry y="126.97000000000025" width="123" height="26.03" as="geometry" />
        </mxCell>
        <mxCell id="nI3ITrf-TJLzajBkWIuT-204" style="edgeStyle=orthogonalEdgeStyle;rounded=0;orthogonalLoop=1;jettySize=auto;html=1;fontSize=14;" parent="nI3ITrf-TJLzajBkWIuT-82" source="nI3ITrf-TJLzajBkWIuT-200" target="nI3ITrf-TJLzajBkWIuT-180" edge="1">
          <mxGeometry relative="1" as="geometry" />
        </mxCell>
        <mxCell id="nI3ITrf-TJLzajBkWIuT-205" value="⑤" style="edgeLabel;html=1;align=center;verticalAlign=middle;resizable=0;points=[];fontSize=14;" parent="nI3ITrf-TJLzajBkWIuT-204" vertex="1" connectable="0">
          <mxGeometry x="-0.3274" relative="1" as="geometry">
            <mxPoint as="offset" />
          </mxGeometry>
        </mxCell>
        <mxCell id="nI3ITrf-TJLzajBkWIuT-255" style="edgeStyle=orthogonalEdgeStyle;rounded=0;jumpStyle=arc;orthogonalLoop=1;jettySize=auto;html=1;entryX=1.025;entryY=0.782;entryDx=0;entryDy=0;entryPerimeter=0;fontSize=14;startArrow=classic;startFill=1;endArrow=none;endFill=0;" parent="nI3ITrf-TJLzajBkWIuT-82" source="nI3ITrf-TJLzajBkWIuT-200" target="nI3ITrf-TJLzajBkWIuT-194" edge="1">
          <mxGeometry relative="1" as="geometry">
            <Array as="points">
              <mxPoint x="473" y="155" />
              <mxPoint x="473" y="342" />
            </Array>
          </mxGeometry>
        </mxCell>
        <mxCell id="nI3ITrf-TJLzajBkWIuT-256" value="⑥" style="edgeLabel;html=1;align=center;verticalAlign=middle;resizable=0;points=[];fontSize=14;" parent="nI3ITrf-TJLzajBkWIuT-255" vertex="1" connectable="0">
          <mxGeometry x="0.2547" y="-2" relative="1" as="geometry">
            <mxPoint as="offset" />
          </mxGeometry>
        </mxCell>
        <mxCell id="nI3ITrf-TJLzajBkWIuT-200" value="&lt;h1&gt;&lt;font style=&quot;font-size: 18px;&quot;&gt;Markdown文件&lt;/font&gt;&lt;/h1&gt;&lt;p&gt;&lt;span class=&quot;fontstyle0&quot;&gt;# &lt;/span&gt;&lt;span style=&quot;color:rgb(66,113,174);font-size:11pt;&quot; class=&quot;fontstyle1&quot;&gt;个⼈收藏&lt;br&gt;&lt;/span&gt;&lt;span class=&quot;fontstyle0&quot;&gt;## &lt;/span&gt;&lt;span style=&quot;color:rgb(66,113,174);font-size:11pt;&quot; class=&quot;fontstyle1&quot;&gt;课程&lt;br&gt;&lt;/span&gt;&lt;span style=&quot;color:rgb(77,77,76);&quot; class=&quot;fontstyle0&quot;&gt;[&lt;/span&gt;&lt;span style=&quot;color:rgb(113,140,0);&quot; class=&quot;fontstyle0&quot;&gt;elearning&lt;/span&gt;&lt;span style=&quot;color:rgb(77,77,76);&quot; class=&quot;fontstyle0&quot;&gt;](&lt;/span&gt;&lt;span style=&quot;color:rgb(245,135,31);&quot; class=&quot;fontstyle0&quot;&gt;https://elearning.fudan.edu.cn/courses&lt;/span&gt;&lt;span style=&quot;color:rgb(77,77,76);&quot; class=&quot;fontstyle0&quot;&gt;)&lt;/span&gt;&lt;br&gt;&lt;br style=&quot;font-variant-numeric: normal; font-variant-east-asian: normal; line-height: normal; text-align: -webkit-auto; text-size-adjust: auto;&quot;&gt;&lt;/p&gt;" style="text;html=1;strokeColor=default;fillColor=none;spacing=5;spacingTop=-20;whiteSpace=wrap;overflow=hidden;rounded=0;labelBorderColor=none;fontSize=14;dashed=1;" parent="nI3ITrf-TJLzajBkWIuT-82" vertex="1">
          <mxGeometry x="35.5" y="93.75" width="400" height="121.5" as="geometry" />
        </mxCell>
        <mxCell id="nI3ITrf-TJLzajBkWIuT-234" style="edgeStyle=orthogonalEdgeStyle;rounded=0;orthogonalLoop=1;jettySize=auto;html=1;entryX=0;entryY=0.5;entryDx=0;entryDy=0;fontSize=14;" parent="nI3ITrf-TJLzajBkWIuT-79" source="nI3ITrf-TJLzajBkWIuT-90" target="nI3ITrf-TJLzajBkWIuT-229" edge="1">
          <mxGeometry relative="1" as="geometry">
            <Array as="points">
              <mxPoint x="261" y="155" />
              <mxPoint x="261" y="66" />
            </Array>
          </mxGeometry>
        </mxCell>
        <mxCell id="nI3ITrf-TJLzajBkWIuT-237" value="③" style="edgeLabel;html=1;align=center;verticalAlign=middle;resizable=0;points=[];fontSize=14;" parent="nI3ITrf-TJLzajBkWIuT-234" vertex="1" connectable="0">
          <mxGeometry x="-0.5097" y="2" relative="1" as="geometry">
            <mxPoint as="offset" />
          </mxGeometry>
        </mxCell>
        <mxCell id="nI3ITrf-TJLzajBkWIuT-252" style="edgeStyle=orthogonalEdgeStyle;rounded=0;jumpStyle=arc;orthogonalLoop=1;jettySize=auto;html=1;fontSize=14;" parent="nI3ITrf-TJLzajBkWIuT-79" source="nI3ITrf-TJLzajBkWIuT-238" target="nI3ITrf-TJLzajBkWIuT-180" edge="1">
          <mxGeometry relative="1" as="geometry" />
        </mxCell>
        <mxCell id="nI3ITrf-TJLzajBkWIuT-254" value="⑤" style="edgeLabel;html=1;align=center;verticalAlign=middle;resizable=0;points=[];fontSize=14;" parent="nI3ITrf-TJLzajBkWIuT-252" vertex="1" connectable="0">
          <mxGeometry x="-0.1954" y="-3" relative="1" as="geometry">
            <mxPoint as="offset" />
          </mxGeometry>
        </mxCell>
      </root>
    </mxGraphModel>
  </diagram>
  <diagram id="__6COhvT3kwUKExTm3cS" name="第 2 页">
    <mxGraphModel dx="2057" dy="-5608" grid="0" gridSize="10" guides="1" tooltips="1" connect="1" arrows="1" fold="1" page="0" pageScale="1" pageWidth="827" pageHeight="1169" math="0" shadow="0">
      <root>
        <mxCell id="0" />
        <mxCell id="1" parent="0" />
        <mxCell id="-VCfdtnj3GZ-oLUx-gRg-1" value="程序执行流程图" style="swimlane;childLayout=stackLayout;resizeParent=1;resizeParentMax=0;startSize=20;horizontal=0;horizontalStack=1;rounded=0;labelBorderColor=none;fontSize=14;" vertex="1" parent="1">
          <mxGeometry x="225" y="6535" width="1531" height="720" as="geometry" />
        </mxCell>
        <mxCell id="-VCfdtnj3GZ-oLUx-gRg-2" style="rounded=0;orthogonalLoop=1;jettySize=auto;html=1;fontSize=14;exitX=1;exitY=0.5;exitDx=0;exitDy=0;edgeStyle=orthogonalEdgeStyle;" edge="1" parent="-VCfdtnj3GZ-oLUx-gRg-1" source="-VCfdtnj3GZ-oLUx-gRg-13" target="-VCfdtnj3GZ-oLUx-gRg-26">
          <mxGeometry relative="1" as="geometry" />
        </mxCell>
        <mxCell id="-VCfdtnj3GZ-oLUx-gRg-3" style="rounded=0;orthogonalLoop=1;jettySize=auto;html=1;fontSize=16;entryX=0;entryY=0.25;entryDx=0;entryDy=0;" edge="1" parent="-VCfdtnj3GZ-oLUx-gRg-1" source="-VCfdtnj3GZ-oLUx-gRg-27" target="-VCfdtnj3GZ-oLUx-gRg-46">
          <mxGeometry relative="1" as="geometry">
            <mxPoint x="1059" y="234.4999999999991" as="targetPoint" />
          </mxGeometry>
        </mxCell>
        <mxCell id="-VCfdtnj3GZ-oLUx-gRg-4" value="⑤" style="edgeLabel;html=1;align=center;verticalAlign=middle;resizable=0;points=[];fontSize=16;" vertex="1" connectable="0" parent="-VCfdtnj3GZ-oLUx-gRg-3">
          <mxGeometry x="-0.2759" y="1" relative="1" as="geometry">
            <mxPoint as="offset" />
          </mxGeometry>
        </mxCell>
        <mxCell id="-VCfdtnj3GZ-oLUx-gRg-5" style="edgeStyle=orthogonalEdgeStyle;rounded=0;orthogonalLoop=1;jettySize=auto;html=1;fontSize=18;" edge="1" parent="-VCfdtnj3GZ-oLUx-gRg-1" source="-VCfdtnj3GZ-oLUx-gRg-21" target="-VCfdtnj3GZ-oLUx-gRg-69">
          <mxGeometry relative="1" as="geometry" />
        </mxCell>
        <mxCell id="-VCfdtnj3GZ-oLUx-gRg-6" value="&lt;font style=&quot;font-size: 14px;&quot;&gt;④&lt;/font&gt;" style="edgeLabel;html=1;align=center;verticalAlign=middle;resizable=0;points=[];fontSize=18;" vertex="1" connectable="0" parent="-VCfdtnj3GZ-oLUx-gRg-5">
          <mxGeometry x="-0.4549" relative="1" as="geometry">
            <mxPoint as="offset" />
          </mxGeometry>
        </mxCell>
        <mxCell id="-VCfdtnj3GZ-oLUx-gRg-7" style="edgeStyle=orthogonalEdgeStyle;rounded=0;orthogonalLoop=1;jettySize=auto;html=1;entryX=0;entryY=0.75;entryDx=0;entryDy=0;fontSize=14;" edge="1" parent="-VCfdtnj3GZ-oLUx-gRg-1" source="-VCfdtnj3GZ-oLUx-gRg-20" target="-VCfdtnj3GZ-oLUx-gRg-46">
          <mxGeometry relative="1" as="geometry">
            <Array as="points">
              <mxPoint x="985" y="419" />
              <mxPoint x="985" y="365" />
            </Array>
          </mxGeometry>
        </mxCell>
        <mxCell id="-VCfdtnj3GZ-oLUx-gRg-8" value="④" style="edgeLabel;html=1;align=center;verticalAlign=middle;resizable=0;points=[];fontSize=14;" vertex="1" connectable="0" parent="-VCfdtnj3GZ-oLUx-gRg-7">
          <mxGeometry x="-0.8185" y="-1" relative="1" as="geometry">
            <mxPoint as="offset" />
          </mxGeometry>
        </mxCell>
        <mxCell id="-VCfdtnj3GZ-oLUx-gRg-9" value="解析指令" style="swimlane;startSize=20;rounded=0;labelBorderColor=none;fontSize=14;swimlaneFillColor=none;" vertex="1" parent="-VCfdtnj3GZ-oLUx-gRg-1">
          <mxGeometry x="20" width="267" height="720" as="geometry" />
        </mxCell>
        <mxCell id="-VCfdtnj3GZ-oLUx-gRg-10" style="edgeStyle=orthogonalEdgeStyle;rounded=0;orthogonalLoop=1;jettySize=auto;html=1;entryX=0.5;entryY=1;entryDx=0;entryDy=0;fontSize=14;" edge="1" parent="-VCfdtnj3GZ-oLUx-gRg-9" source="-VCfdtnj3GZ-oLUx-gRg-12" target="-VCfdtnj3GZ-oLUx-gRg-13">
          <mxGeometry relative="1" as="geometry" />
        </mxCell>
        <mxCell id="-VCfdtnj3GZ-oLUx-gRg-11" value="②" style="edgeLabel;html=1;align=center;verticalAlign=middle;resizable=0;points=[];fontSize=14;" vertex="1" connectable="0" parent="-VCfdtnj3GZ-oLUx-gRg-10">
          <mxGeometry x="0.3885" y="-1" relative="1" as="geometry">
            <mxPoint as="offset" />
          </mxGeometry>
        </mxCell>
        <mxCell id="-VCfdtnj3GZ-oLUx-gRg-12" value="commandParse" style="rounded=0;whiteSpace=wrap;html=1;labelBorderColor=none;fontSize=14;aspect=fixed;" vertex="1" parent="-VCfdtnj3GZ-oLUx-gRg-9">
          <mxGeometry x="32" y="349.5" width="140" height="70" as="geometry" />
        </mxCell>
        <mxCell id="-VCfdtnj3GZ-oLUx-gRg-13" value="commandManager" style="rounded=0;whiteSpace=wrap;html=1;fontSize=14;aspect=fixed;" vertex="1" parent="-VCfdtnj3GZ-oLUx-gRg-9">
          <mxGeometry x="32" y="119.5" width="140" height="70" as="geometry" />
        </mxCell>
        <mxCell id="-VCfdtnj3GZ-oLUx-gRg-14" style="edgeStyle=orthogonalEdgeStyle;rounded=0;orthogonalLoop=1;jettySize=auto;html=1;entryX=0.5;entryY=1;entryDx=0;entryDy=0;fontSize=14;" edge="1" parent="-VCfdtnj3GZ-oLUx-gRg-9" source="-VCfdtnj3GZ-oLUx-gRg-16" target="-VCfdtnj3GZ-oLUx-gRg-12">
          <mxGeometry relative="1" as="geometry" />
        </mxCell>
        <mxCell id="-VCfdtnj3GZ-oLUx-gRg-15" value="①" style="edgeLabel;html=1;align=center;verticalAlign=middle;resizable=0;points=[];fontSize=14;" vertex="1" connectable="0" parent="-VCfdtnj3GZ-oLUx-gRg-14">
          <mxGeometry x="0.3456" relative="1" as="geometry">
            <mxPoint as="offset" />
          </mxGeometry>
        </mxCell>
        <mxCell id="-VCfdtnj3GZ-oLUx-gRg-16" value="input: order" style="rounded=0;whiteSpace=wrap;html=1;labelBorderColor=none;fontSize=14;aspect=fixed;" vertex="1" parent="-VCfdtnj3GZ-oLUx-gRg-9">
          <mxGeometry x="32" y="571.5" width="140" height="70" as="geometry" />
        </mxCell>
        <mxCell id="-VCfdtnj3GZ-oLUx-gRg-17" value="命令模块" style="swimlane;startSize=20;rounded=0;labelBorderColor=none;fontSize=14;" vertex="1" parent="-VCfdtnj3GZ-oLUx-gRg-1">
          <mxGeometry x="287" width="733" height="720" as="geometry" />
        </mxCell>
        <mxCell id="-VCfdtnj3GZ-oLUx-gRg-18" style="edgeStyle=orthogonalEdgeStyle;rounded=0;jumpStyle=arc;orthogonalLoop=1;jettySize=auto;html=1;fontSize=14;" edge="1" parent="-VCfdtnj3GZ-oLUx-gRg-17" source="-VCfdtnj3GZ-oLUx-gRg-35" target="-VCfdtnj3GZ-oLUx-gRg-27">
          <mxGeometry relative="1" as="geometry" />
        </mxCell>
        <mxCell id="-VCfdtnj3GZ-oLUx-gRg-19" value="④" style="edgeLabel;html=1;align=center;verticalAlign=middle;resizable=0;points=[];fontSize=14;" vertex="1" connectable="0" parent="-VCfdtnj3GZ-oLUx-gRg-18">
          <mxGeometry x="-0.2611" y="2" relative="1" as="geometry">
            <mxPoint as="offset" />
          </mxGeometry>
        </mxCell>
        <mxCell id="-VCfdtnj3GZ-oLUx-gRg-20" value="bookmarkCommand" style="rounded=0;whiteSpace=wrap;html=1;fontSize=14;aspect=fixed;" vertex="1" parent="-VCfdtnj3GZ-oLUx-gRg-17">
          <mxGeometry x="252.5" y="384" width="140" height="70" as="geometry" />
        </mxCell>
        <mxCell id="-VCfdtnj3GZ-oLUx-gRg-21" value="openCommand" style="rounded=0;whiteSpace=wrap;html=1;fontSize=14;aspect=fixed;" vertex="1" parent="-VCfdtnj3GZ-oLUx-gRg-17">
          <mxGeometry x="252.5" y="119.5" width="140" height="70" as="geometry" />
        </mxCell>
        <mxCell id="-VCfdtnj3GZ-oLUx-gRg-22" style="edgeStyle=orthogonalEdgeStyle;rounded=0;orthogonalLoop=1;jettySize=auto;html=1;entryX=0;entryY=0.5;entryDx=0;entryDy=0;dashed=1;fontSize=14;" edge="1" parent="-VCfdtnj3GZ-oLUx-gRg-17" source="-VCfdtnj3GZ-oLUx-gRg-26" target="-VCfdtnj3GZ-oLUx-gRg-21">
          <mxGeometry relative="1" as="geometry" />
        </mxCell>
        <mxCell id="-VCfdtnj3GZ-oLUx-gRg-23" style="edgeStyle=orthogonalEdgeStyle;rounded=0;orthogonalLoop=1;jettySize=auto;html=1;entryX=0;entryY=0.5;entryDx=0;entryDy=0;fontSize=14;dashed=1;" edge="1" parent="-VCfdtnj3GZ-oLUx-gRg-17" source="-VCfdtnj3GZ-oLUx-gRg-26" target="-VCfdtnj3GZ-oLUx-gRg-20">
          <mxGeometry relative="1" as="geometry" />
        </mxCell>
        <mxCell id="-VCfdtnj3GZ-oLUx-gRg-24" style="edgeStyle=orthogonalEdgeStyle;rounded=0;jumpStyle=arc;orthogonalLoop=1;jettySize=auto;html=1;entryX=0;entryY=0.5;entryDx=0;entryDy=0;fontSize=14;dashed=1;" edge="1" parent="-VCfdtnj3GZ-oLUx-gRg-17" source="-VCfdtnj3GZ-oLUx-gRg-26" target="-VCfdtnj3GZ-oLUx-gRg-39">
          <mxGeometry relative="1" as="geometry" />
        </mxCell>
        <mxCell id="-VCfdtnj3GZ-oLUx-gRg-25" style="edgeStyle=orthogonalEdgeStyle;rounded=0;jumpStyle=arc;orthogonalLoop=1;jettySize=auto;html=1;entryX=0;entryY=0.5;entryDx=0;entryDy=0;dashed=1;fontSize=14;" edge="1" parent="-VCfdtnj3GZ-oLUx-gRg-17" source="-VCfdtnj3GZ-oLUx-gRg-26" target="-VCfdtnj3GZ-oLUx-gRg-35">
          <mxGeometry relative="1" as="geometry" />
        </mxCell>
        <mxCell id="-VCfdtnj3GZ-oLUx-gRg-26" value="Command" style="rounded=0;whiteSpace=wrap;html=1;fontSize=14;aspect=fixed;" vertex="1" parent="-VCfdtnj3GZ-oLUx-gRg-17">
          <mxGeometry x="23" y="119.5" width="140" height="70" as="geometry" />
        </mxCell>
        <mxCell id="-VCfdtnj3GZ-oLUx-gRg-27" value="historyCommand" style="swimlane;fontStyle=0;childLayout=stackLayout;horizontal=1;startSize=26;fillColor=none;horizontalStack=0;resizeParent=1;resizeParentMax=0;resizeLast=0;collapsible=1;marginBottom=0;html=1;rounded=0;labelBorderColor=none;fontSize=14;" vertex="1" parent="-VCfdtnj3GZ-oLUx-gRg-17">
          <mxGeometry x="489" y="235" width="168" height="104" as="geometry" />
        </mxCell>
        <mxCell id="-VCfdtnj3GZ-oLUx-gRg-28" value="addCommand" style="text;strokeColor=none;fillColor=none;align=left;verticalAlign=top;spacingLeft=4;spacingRight=4;overflow=hidden;rotatable=0;points=[[0,0.5],[1,0.5]];portConstraint=eastwest;whiteSpace=wrap;html=1;rounded=0;labelBorderColor=none;fontSize=14;" vertex="1" parent="-VCfdtnj3GZ-oLUx-gRg-27">
          <mxGeometry y="26" width="168" height="26" as="geometry" />
        </mxCell>
        <mxCell id="-VCfdtnj3GZ-oLUx-gRg-29" value="deleteCommand" style="text;strokeColor=none;fillColor=none;align=left;verticalAlign=top;spacingLeft=4;spacingRight=4;overflow=hidden;rotatable=0;points=[[0,0.5],[1,0.5]];portConstraint=eastwest;whiteSpace=wrap;html=1;rounded=0;labelBorderColor=none;fontSize=14;" vertex="1" parent="-VCfdtnj3GZ-oLUx-gRg-27">
          <mxGeometry y="52" width="168" height="26" as="geometry" />
        </mxCell>
        <mxCell id="-VCfdtnj3GZ-oLUx-gRg-30" value="........" style="text;strokeColor=none;fillColor=none;align=left;verticalAlign=top;spacingLeft=4;spacingRight=4;overflow=hidden;rotatable=0;points=[[0,0.5],[1,0.5]];portConstraint=eastwest;whiteSpace=wrap;html=1;rounded=0;labelBorderColor=none;fontSize=14;" vertex="1" parent="-VCfdtnj3GZ-oLUx-gRg-27">
          <mxGeometry y="78" width="168" height="26" as="geometry" />
        </mxCell>
        <mxCell id="-VCfdtnj3GZ-oLUx-gRg-31" style="edgeStyle=orthogonalEdgeStyle;rounded=0;jumpStyle=arc;orthogonalLoop=1;jettySize=auto;html=1;fontSize=14;" edge="1" parent="-VCfdtnj3GZ-oLUx-gRg-17" source="-VCfdtnj3GZ-oLUx-gRg-33" target="-VCfdtnj3GZ-oLUx-gRg-27">
          <mxGeometry relative="1" as="geometry" />
        </mxCell>
        <mxCell id="-VCfdtnj3GZ-oLUx-gRg-32" value="④" style="edgeLabel;html=1;align=center;verticalAlign=middle;resizable=0;points=[];fontSize=14;" vertex="1" connectable="0" parent="-VCfdtnj3GZ-oLUx-gRg-31">
          <mxGeometry x="-0.5129" relative="1" as="geometry">
            <mxPoint as="offset" />
          </mxGeometry>
        </mxCell>
        <mxCell id="-VCfdtnj3GZ-oLUx-gRg-33" value="undo / redo" style="rounded=0;whiteSpace=wrap;html=1;fontSize=14;aspect=fixed;" vertex="1" parent="-VCfdtnj3GZ-oLUx-gRg-17">
          <mxGeometry x="23" y="31" width="140" height="70" as="geometry" />
        </mxCell>
        <mxCell id="-VCfdtnj3GZ-oLUx-gRg-34" value="" style="group" vertex="1" connectable="0" parent="-VCfdtnj3GZ-oLUx-gRg-17">
          <mxGeometry x="249" y="208" width="147" height="158" as="geometry" />
        </mxCell>
        <mxCell id="-VCfdtnj3GZ-oLUx-gRg-35" value="" style="rounded=0;whiteSpace=wrap;html=1;dashed=1;labelBorderColor=none;strokeColor=default;fontSize=14;fillColor=default;" vertex="1" parent="-VCfdtnj3GZ-oLUx-gRg-34">
          <mxGeometry width="147" height="158" as="geometry" />
        </mxCell>
        <mxCell id="-VCfdtnj3GZ-oLUx-gRg-36" value="addCommand" style="rounded=0;whiteSpace=wrap;html=1;fontSize=14;aspect=fixed;" vertex="1" parent="-VCfdtnj3GZ-oLUx-gRg-34">
          <mxGeometry x="3.5" y="5.5" width="140" height="70" as="geometry" />
        </mxCell>
        <mxCell id="-VCfdtnj3GZ-oLUx-gRg-37" value="deleteCommand" style="rounded=0;whiteSpace=wrap;html=1;fontSize=14;aspect=fixed;" vertex="1" parent="-VCfdtnj3GZ-oLUx-gRg-34">
          <mxGeometry x="3.5" y="83.5" width="140" height="70" as="geometry" />
        </mxCell>
        <mxCell id="-VCfdtnj3GZ-oLUx-gRg-38" value="" style="group" vertex="1" connectable="0" parent="-VCfdtnj3GZ-oLUx-gRg-17">
          <mxGeometry x="249" y="477" width="147" height="233" as="geometry" />
        </mxCell>
        <mxCell id="-VCfdtnj3GZ-oLUx-gRg-39" value="" style="rounded=0;whiteSpace=wrap;html=1;dashed=1;labelBorderColor=none;strokeColor=default;fontSize=14;fillColor=default;" vertex="1" parent="-VCfdtnj3GZ-oLUx-gRg-38">
          <mxGeometry width="147" height="233" as="geometry" />
        </mxCell>
        <mxCell id="-VCfdtnj3GZ-oLUx-gRg-40" value="readCommand" style="rounded=0;whiteSpace=wrap;html=1;fontSize=14;aspect=fixed;" vertex="1" parent="-VCfdtnj3GZ-oLUx-gRg-38">
          <mxGeometry x="3.5" y="2.5" width="140" height="70" as="geometry" />
        </mxCell>
        <mxCell id="-VCfdtnj3GZ-oLUx-gRg-41" value="saveCommand" style="rounded=0;whiteSpace=wrap;html=1;fontSize=14;aspect=fixed;" vertex="1" parent="-VCfdtnj3GZ-oLUx-gRg-38">
          <mxGeometry x="3.5" y="79.5" width="140" height="70" as="geometry" />
        </mxCell>
        <mxCell id="-VCfdtnj3GZ-oLUx-gRg-42" value="vision" style="rounded=0;whiteSpace=wrap;html=1;fontSize=14;aspect=fixed;" vertex="1" parent="-VCfdtnj3GZ-oLUx-gRg-38">
          <mxGeometry x="3.5" y="156.5" width="140" height="70" as="geometry" />
        </mxCell>
        <mxCell id="-VCfdtnj3GZ-oLUx-gRg-43" style="edgeStyle=orthogonalEdgeStyle;rounded=0;jumpStyle=arc;orthogonalLoop=1;jettySize=auto;html=1;fontSize=14;" edge="1" parent="-VCfdtnj3GZ-oLUx-gRg-17" source="-VCfdtnj3GZ-oLUx-gRg-39" target="-VCfdtnj3GZ-oLUx-gRg-27">
          <mxGeometry relative="1" as="geometry" />
        </mxCell>
        <mxCell id="-VCfdtnj3GZ-oLUx-gRg-44" value="④" style="edgeLabel;html=1;align=center;verticalAlign=middle;resizable=0;points=[];fontSize=14;" vertex="1" connectable="0" parent="-VCfdtnj3GZ-oLUx-gRg-43">
          <mxGeometry x="0.2717" y="-1" relative="1" as="geometry">
            <mxPoint as="offset" />
          </mxGeometry>
        </mxCell>
        <mxCell id="-VCfdtnj3GZ-oLUx-gRg-45" value="数据结构" style="swimlane;startSize=20;rounded=0;labelBorderColor=none;fontSize=14;" vertex="1" parent="-VCfdtnj3GZ-oLUx-gRg-1">
          <mxGeometry x="1020" width="511" height="720" as="geometry" />
        </mxCell>
        <mxCell id="-VCfdtnj3GZ-oLUx-gRg-46" value="Label" style="swimlane;childLayout=stackLayout;resizeParent=1;resizeParentMax=0;startSize=20;horizontal=0;horizontalStack=1;rounded=0;labelBorderColor=none;fontSize=14;" vertex="1" parent="-VCfdtnj3GZ-oLUx-gRg-45">
          <mxGeometry x="41" y="250" width="389" height="153.00000000000026" as="geometry" />
        </mxCell>
        <mxCell id="-VCfdtnj3GZ-oLUx-gRg-47" value="Item1" style="swimlane;startSize=20;rounded=0;labelBorderColor=none;fontSize=14;" vertex="1" parent="-VCfdtnj3GZ-oLUx-gRg-46">
          <mxGeometry x="20" width="123" height="153.00000000000026" as="geometry" />
        </mxCell>
        <mxCell id="-VCfdtnj3GZ-oLUx-gRg-48" value="title" style="text;strokeColor=none;fillColor=none;align=left;verticalAlign=middle;spacingLeft=4;spacingRight=4;overflow=hidden;points=[[0,0.5],[1,0.5]];portConstraint=eastwest;rotatable=0;whiteSpace=wrap;html=1;rounded=0;labelBorderColor=none;fontSize=14;aspect=fixed;" vertex="1" parent="-VCfdtnj3GZ-oLUx-gRg-47">
          <mxGeometry y="22" width="123" height="26.03" as="geometry" />
        </mxCell>
        <mxCell id="-VCfdtnj3GZ-oLUx-gRg-49" value="bookmarkName" style="text;strokeColor=none;fillColor=none;align=left;verticalAlign=middle;spacingLeft=4;spacingRight=4;overflow=hidden;points=[[0,0.5],[1,0.5]];portConstraint=eastwest;rotatable=0;whiteSpace=wrap;html=1;rounded=0;labelBorderColor=none;fontSize=14;aspect=fixed;" vertex="1" parent="-VCfdtnj3GZ-oLUx-gRg-47">
          <mxGeometry y="48.029999999999745" width="123" height="26.03" as="geometry" />
        </mxCell>
        <mxCell id="-VCfdtnj3GZ-oLUx-gRg-50" value="hyperlink" style="text;strokeColor=none;fillColor=none;align=left;verticalAlign=middle;spacingLeft=4;spacingRight=4;overflow=hidden;points=[[0,0.5],[1,0.5]];portConstraint=eastwest;rotatable=0;whiteSpace=wrap;html=1;rounded=0;labelBorderColor=none;fontSize=14;aspect=fixed;" vertex="1" parent="-VCfdtnj3GZ-oLUx-gRg-47">
          <mxGeometry y="74.0600000000004" width="123" height="26.03" as="geometry" />
        </mxCell>
        <mxCell id="-VCfdtnj3GZ-oLUx-gRg-51" value="visited" style="text;strokeColor=none;fillColor=none;align=left;verticalAlign=middle;spacingLeft=4;spacingRight=4;overflow=hidden;points=[[0,0.5],[1,0.5]];portConstraint=eastwest;rotatable=0;whiteSpace=wrap;html=1;rounded=0;labelBorderColor=none;fontSize=14;aspect=fixed;" vertex="1" parent="-VCfdtnj3GZ-oLUx-gRg-47">
          <mxGeometry y="100.09000000000015" width="123" height="26.03" as="geometry" />
        </mxCell>
        <mxCell id="-VCfdtnj3GZ-oLUx-gRg-52" value="sons" style="text;strokeColor=none;fillColor=none;align=left;verticalAlign=middle;spacingLeft=4;spacingRight=4;overflow=hidden;points=[[0,0.5],[1,0.5]];portConstraint=eastwest;rotatable=0;whiteSpace=wrap;html=1;rounded=0;labelBorderColor=none;fontSize=14;aspect=fixed;" vertex="1" parent="-VCfdtnj3GZ-oLUx-gRg-47">
          <mxGeometry y="126.11999999999989" width="123" height="26.03" as="geometry" />
        </mxCell>
        <mxCell id="-VCfdtnj3GZ-oLUx-gRg-53" value="Item2" style="swimlane;startSize=20;rounded=0;labelBorderColor=none;fontSize=14;" vertex="1" parent="-VCfdtnj3GZ-oLUx-gRg-46">
          <mxGeometry x="143" width="123" height="153.00000000000026" as="geometry" />
        </mxCell>
        <mxCell id="-VCfdtnj3GZ-oLUx-gRg-54" value="title" style="text;strokeColor=none;fillColor=none;align=left;verticalAlign=middle;spacingLeft=4;spacingRight=4;overflow=hidden;points=[[0,0.5],[1,0.5]];portConstraint=eastwest;rotatable=0;whiteSpace=wrap;html=1;rounded=0;labelBorderColor=none;fontSize=14;aspect=fixed;" vertex="1" parent="-VCfdtnj3GZ-oLUx-gRg-53">
          <mxGeometry y="22" width="123" height="26.03" as="geometry" />
        </mxCell>
        <mxCell id="-VCfdtnj3GZ-oLUx-gRg-55" value="bookmarkName" style="text;strokeColor=none;fillColor=none;align=left;verticalAlign=middle;spacingLeft=4;spacingRight=4;overflow=hidden;points=[[0,0.5],[1,0.5]];portConstraint=eastwest;rotatable=0;whiteSpace=wrap;html=1;rounded=0;labelBorderColor=none;fontSize=14;aspect=fixed;" vertex="1" parent="-VCfdtnj3GZ-oLUx-gRg-53">
          <mxGeometry y="48.029999999999745" width="123" height="26.03" as="geometry" />
        </mxCell>
        <mxCell id="-VCfdtnj3GZ-oLUx-gRg-56" value="hyperlink" style="text;strokeColor=none;fillColor=none;align=left;verticalAlign=middle;spacingLeft=4;spacingRight=4;overflow=hidden;points=[[0,0.5],[1,0.5]];portConstraint=eastwest;rotatable=0;whiteSpace=wrap;html=1;rounded=0;labelBorderColor=none;fontSize=14;aspect=fixed;" vertex="1" parent="-VCfdtnj3GZ-oLUx-gRg-53">
          <mxGeometry y="74.0600000000004" width="123" height="26.03" as="geometry" />
        </mxCell>
        <mxCell id="-VCfdtnj3GZ-oLUx-gRg-57" value="sons" style="text;strokeColor=none;fillColor=none;align=left;verticalAlign=middle;spacingLeft=4;spacingRight=4;overflow=hidden;points=[[0,0.5],[1,0.5]];portConstraint=eastwest;rotatable=0;whiteSpace=wrap;html=1;rounded=0;labelBorderColor=none;fontSize=14;aspect=fixed;" vertex="1" parent="-VCfdtnj3GZ-oLUx-gRg-53">
          <mxGeometry y="126.97000000000014" width="123" height="26.03" as="geometry" />
        </mxCell>
        <mxCell id="-VCfdtnj3GZ-oLUx-gRg-58" value="visited" style="text;strokeColor=none;fillColor=none;align=left;verticalAlign=middle;spacingLeft=4;spacingRight=4;overflow=hidden;points=[[0,0.5],[1,0.5]];portConstraint=eastwest;rotatable=0;whiteSpace=wrap;html=1;rounded=0;labelBorderColor=none;fontSize=14;aspect=fixed;" vertex="1" parent="-VCfdtnj3GZ-oLUx-gRg-53">
          <mxGeometry y="100.94000000000051" width="123" height="26.03" as="geometry" />
        </mxCell>
        <mxCell id="-VCfdtnj3GZ-oLUx-gRg-59" value="Item3" style="swimlane;startSize=20;rounded=0;labelBorderColor=none;fontSize=14;" vertex="1" parent="-VCfdtnj3GZ-oLUx-gRg-46">
          <mxGeometry x="266" width="123" height="153.00000000000026" as="geometry" />
        </mxCell>
        <mxCell id="-VCfdtnj3GZ-oLUx-gRg-60" value="title" style="text;strokeColor=none;fillColor=none;align=left;verticalAlign=middle;spacingLeft=4;spacingRight=4;overflow=hidden;points=[[0,0.5],[1,0.5]];portConstraint=eastwest;rotatable=0;whiteSpace=wrap;html=1;rounded=0;labelBorderColor=none;fontSize=14;aspect=fixed;" vertex="1" parent="-VCfdtnj3GZ-oLUx-gRg-59">
          <mxGeometry y="20" width="123" height="26.03" as="geometry" />
        </mxCell>
        <mxCell id="-VCfdtnj3GZ-oLUx-gRg-61" value="bookmarkName" style="text;strokeColor=none;fillColor=none;align=left;verticalAlign=middle;spacingLeft=4;spacingRight=4;overflow=hidden;points=[[0,0.5],[1,0.5]];portConstraint=eastwest;rotatable=0;whiteSpace=wrap;html=1;rounded=0;labelBorderColor=none;fontSize=14;aspect=fixed;" vertex="1" parent="-VCfdtnj3GZ-oLUx-gRg-59">
          <mxGeometry y="46.029999999999745" width="123" height="26.03" as="geometry" />
        </mxCell>
        <mxCell id="-VCfdtnj3GZ-oLUx-gRg-62" value="hyperlink" style="text;strokeColor=none;fillColor=none;align=left;verticalAlign=middle;spacingLeft=4;spacingRight=4;overflow=hidden;points=[[0,0.5],[1,0.5]];portConstraint=eastwest;rotatable=0;whiteSpace=wrap;html=1;rounded=0;labelBorderColor=none;fontSize=14;aspect=fixed;" vertex="1" parent="-VCfdtnj3GZ-oLUx-gRg-59">
          <mxGeometry y="72.0600000000004" width="123" height="26.03" as="geometry" />
        </mxCell>
        <mxCell id="-VCfdtnj3GZ-oLUx-gRg-63" value="visited" style="text;strokeColor=none;fillColor=none;align=left;verticalAlign=middle;spacingLeft=4;spacingRight=4;overflow=hidden;points=[[0,0.5],[1,0.5]];portConstraint=eastwest;rotatable=0;whiteSpace=wrap;html=1;rounded=0;labelBorderColor=none;fontSize=14;aspect=fixed;" vertex="1" parent="-VCfdtnj3GZ-oLUx-gRg-59">
          <mxGeometry y="98.09000000000015" width="123" height="26.03" as="geometry" />
        </mxCell>
        <mxCell id="-VCfdtnj3GZ-oLUx-gRg-64" value="sons" style="text;strokeColor=none;fillColor=none;align=left;verticalAlign=middle;spacingLeft=4;spacingRight=4;overflow=hidden;points=[[0,0.5],[1,0.5]];portConstraint=eastwest;rotatable=0;whiteSpace=wrap;html=1;rounded=0;labelBorderColor=none;fontSize=14;aspect=fixed;" vertex="1" parent="-VCfdtnj3GZ-oLUx-gRg-59">
          <mxGeometry y="126.97000000000025" width="123" height="26.03" as="geometry" />
        </mxCell>
        <mxCell id="-VCfdtnj3GZ-oLUx-gRg-65" style="edgeStyle=orthogonalEdgeStyle;rounded=0;orthogonalLoop=1;jettySize=auto;html=1;fontSize=14;" edge="1" parent="-VCfdtnj3GZ-oLUx-gRg-45" source="-VCfdtnj3GZ-oLUx-gRg-69" target="-VCfdtnj3GZ-oLUx-gRg-46">
          <mxGeometry relative="1" as="geometry" />
        </mxCell>
        <mxCell id="-VCfdtnj3GZ-oLUx-gRg-66" value="⑤" style="edgeLabel;html=1;align=center;verticalAlign=middle;resizable=0;points=[];fontSize=14;" vertex="1" connectable="0" parent="-VCfdtnj3GZ-oLUx-gRg-65">
          <mxGeometry x="-0.3274" relative="1" as="geometry">
            <mxPoint as="offset" />
          </mxGeometry>
        </mxCell>
        <mxCell id="-VCfdtnj3GZ-oLUx-gRg-67" style="edgeStyle=orthogonalEdgeStyle;rounded=0;jumpStyle=arc;orthogonalLoop=1;jettySize=auto;html=1;entryX=1.025;entryY=0.782;entryDx=0;entryDy=0;entryPerimeter=0;fontSize=14;startArrow=classic;startFill=1;endArrow=none;endFill=0;" edge="1" parent="-VCfdtnj3GZ-oLUx-gRg-45" source="-VCfdtnj3GZ-oLUx-gRg-69" target="-VCfdtnj3GZ-oLUx-gRg-62">
          <mxGeometry relative="1" as="geometry">
            <Array as="points">
              <mxPoint x="473" y="155" />
              <mxPoint x="473" y="342" />
            </Array>
          </mxGeometry>
        </mxCell>
        <mxCell id="-VCfdtnj3GZ-oLUx-gRg-68" value="⑥" style="edgeLabel;html=1;align=center;verticalAlign=middle;resizable=0;points=[];fontSize=14;" vertex="1" connectable="0" parent="-VCfdtnj3GZ-oLUx-gRg-67">
          <mxGeometry x="0.2547" y="-2" relative="1" as="geometry">
            <mxPoint as="offset" />
          </mxGeometry>
        </mxCell>
        <mxCell id="-VCfdtnj3GZ-oLUx-gRg-69" value="&lt;h1&gt;&lt;font style=&quot;font-size: 18px;&quot;&gt;Markdown文件&lt;/font&gt;&lt;/h1&gt;&lt;p&gt;&lt;span class=&quot;fontstyle0&quot;&gt;# &lt;/span&gt;&lt;span style=&quot;color:rgb(66,113,174);font-size:11pt;&quot; class=&quot;fontstyle1&quot;&gt;个⼈收藏&lt;br&gt;&lt;/span&gt;&lt;span class=&quot;fontstyle0&quot;&gt;## &lt;/span&gt;&lt;span style=&quot;color:rgb(66,113,174);font-size:11pt;&quot; class=&quot;fontstyle1&quot;&gt;课程&lt;br&gt;&lt;/span&gt;&lt;span style=&quot;color:rgb(77,77,76);&quot; class=&quot;fontstyle0&quot;&gt;[&lt;/span&gt;&lt;span style=&quot;color:rgb(113,140,0);&quot; class=&quot;fontstyle0&quot;&gt;elearning&lt;/span&gt;&lt;span style=&quot;color:rgb(77,77,76);&quot; class=&quot;fontstyle0&quot;&gt;](&lt;/span&gt;&lt;span style=&quot;color:rgb(245,135,31);&quot; class=&quot;fontstyle0&quot;&gt;https://elearning.fudan.edu.cn/courses&lt;/span&gt;&lt;span style=&quot;color:rgb(77,77,76);&quot; class=&quot;fontstyle0&quot;&gt;)&lt;/span&gt;&lt;br&gt;&lt;br style=&quot;font-variant-numeric: normal; font-variant-east-asian: normal; line-height: normal; text-align: -webkit-auto; text-size-adjust: auto;&quot;&gt;&lt;/p&gt;" style="text;html=1;strokeColor=default;fillColor=none;spacing=5;spacingTop=-20;whiteSpace=wrap;overflow=hidden;rounded=0;labelBorderColor=none;fontSize=14;dashed=1;" vertex="1" parent="-VCfdtnj3GZ-oLUx-gRg-45">
          <mxGeometry x="35.5" y="93.75" width="400" height="121.5" as="geometry" />
        </mxCell>
        <mxCell id="-VCfdtnj3GZ-oLUx-gRg-70" style="edgeStyle=orthogonalEdgeStyle;rounded=0;orthogonalLoop=1;jettySize=auto;html=1;entryX=0;entryY=0.5;entryDx=0;entryDy=0;fontSize=14;" edge="1" parent="-VCfdtnj3GZ-oLUx-gRg-1" source="-VCfdtnj3GZ-oLUx-gRg-13" target="-VCfdtnj3GZ-oLUx-gRg-33">
          <mxGeometry relative="1" as="geometry">
            <Array as="points">
              <mxPoint x="261" y="155" />
              <mxPoint x="261" y="66" />
            </Array>
          </mxGeometry>
        </mxCell>
        <mxCell id="-VCfdtnj3GZ-oLUx-gRg-71" value="③" style="edgeLabel;html=1;align=center;verticalAlign=middle;resizable=0;points=[];fontSize=14;" vertex="1" connectable="0" parent="-VCfdtnj3GZ-oLUx-gRg-70">
          <mxGeometry x="-0.5097" y="2" relative="1" as="geometry">
            <mxPoint as="offset" />
          </mxGeometry>
        </mxCell>
        <mxCell id="-VCfdtnj3GZ-oLUx-gRg-72" style="edgeStyle=orthogonalEdgeStyle;rounded=0;jumpStyle=arc;orthogonalLoop=1;jettySize=auto;html=1;fontSize=14;" edge="1" parent="-VCfdtnj3GZ-oLUx-gRg-1" source="-VCfdtnj3GZ-oLUx-gRg-39" target="-VCfdtnj3GZ-oLUx-gRg-46">
          <mxGeometry relative="1" as="geometry" />
        </mxCell>
        <mxCell id="-VCfdtnj3GZ-oLUx-gRg-73" value="⑤" style="edgeLabel;html=1;align=center;verticalAlign=middle;resizable=0;points=[];fontSize=14;" vertex="1" connectable="0" parent="-VCfdtnj3GZ-oLUx-gRg-72">
          <mxGeometry x="-0.1954" y="-3" relative="1" as="geometry">
            <mxPoint as="offset" />
          </mxGeometry>
        </mxCell>
      </root>
    </mxGraphModel>
  </diagram>
</mxfile>
